<svg xmlns="http://www.w3.org/2000/svg" xml:space="preserve" id="Layer_1" width="800" height="800" version="1.1" viewBox="0 0 357.7 357.7"><style>.st0{fill:#4d4d4d}</style><g id="Layer_1_1_"><path d="M135 155c1-4 6-10 6-14-1-4-6-7-10-8a261 261 0 0 0-25-1l-9-1h-6l-7-2a60 60 0 0 0-20-3H39l-1 1h-7 2a91 91 0 0 1 7 1h18l9 1 8 1 8 2 5 2h3v1l-1 1v1h-1v-1h-1l-4-1H30l-6-1H13l-5-2-4-2-1-1-1 1H1l3-4 2-2h2l7 1h13l9 1 7-1h8l7-1h8l9 1h11l13 1h7a372 372 0 0 1 24-1l10 1 5 1h2l1 2 2 1 1 1 1 2-1 3-2 3-4 3-4 5-2 4v2l-1 2-3 3-1 2-1 1v-1l1-1v-4" class="st0"/><path d="m11 138 1-1h78l1 1h1v1l1 1-1 1v1h-1s1 0 0 0l-1-1h-5l-11 1-15 1-12 1H36l-8 1h-6l-2-1-5-2-2-1v-1l-1-1-1-1M20 149v-1h7l10-1 14-1 15-1 14-1 9-1h3l2 1 1 2v1l-1 1h-1v-1h-3l-6 1-13 2-12 2a653 653 0 0 1-21 2h-6l-5-1-4-1-1-1-1-2h-1M32 158h1l1-1h10l8-1 13-2a438 438 0 0 0 23-4l4-1h2l2 1h2l1 1v1l-1 1v1h-1v-1h-2l-9 3-8 2a321 321 0 0 1-29 6h-4l-5-1-4-1-1-1-1-1-1-1-1-1M45 167l6-1 10-1 10-2 11-3 9-3 6-2h2l2 1h2v3l1 1h-1l-1 1v-1l-1-1-1 1-3 1-6 2a165 165 0 0 1-25 9h-2a80 80 0 0 1-12-1l-2-1-1-1-2-1h-1v-1h-1M65 175l1-1 4-1 5-1 7-3 9-3 9-3 3-2h2l2-1h1v1l1 2 1 1h3l-2 1-2 1h-3l-7 3-9 5-7 4H69l-1-1-2-1-1-1c0 1 0 0 0 0M82 181l7-3a275 275 0 0 0 19-10l4-2 1-1 1 1 2 1h3l-3 2-6 5-5 4-3 3-3 1-6 1-5 1h-2l-2-2-1-1h-1M99 185l4-3 4-4 5-4a107 107 0 0 0 8-6v1l1 1h5v2l-5 5a217 217 0 0 1-7 8h-4l-2 1h-5l-2-1-1-1-1 1M114 186l4-4 5-6 3-3h1l1-1h2l1 1v5l-3 5-1 3-1 1v-1h-2l-5 1h-2l-1-1h-2M129 183l1-2 1-1v2l1 1 1 3v2l-1 1h-1l-1-1v-3l-1-2M114 190l1 1 1-1h1l1 1v2a42 42 0 0 0 7 10l5 6a108 108 0 0 0 13 9l6 3h1v2l-1 1h-1l1-1-1-1-4-1a117 117 0 0 1-13-9 63 63 0 0 1-11-12l-3-6-1-2h-1l-1-1v-1" class="st0"/><path d="M118 190h2l3-1 2-1h1l1 1v1l2 1 2-1 2-1h1l1 1 2 4 3 3a78 78 0 0 0 10 7l4 2 3 1 1 1-2 4-2 3-2 3-1 3h-1l1-1-1-2-2-1a66 66 0 0 1-8-5l-5-3a50 50 0 0 1-12-13l-2-4-1-1h-2v-1M92 134h12l2 1v1l-1 1h-1l-1-1-4 1h-4l-2-1h-1v-2M94 141v-1h2l4-1 3-1h3l1 1h1l-1 1v1h-1v1-1l-1-1-3 1-3 1h-4l-1-1M96 147v-1h1l2-1 4-1 3-1 1-1 2 1h1v1l-1 1v1h-1v-1h-1l-3 1-3 1-2 1-1-1h-2M100 151l2-1 4-2 3-1 1-1 2 1h1v3h-1l-1 1v-1h-1a38 38 0 0 0-5 3h-3l-1-1-1-1M104 156l3-2 4-2 2-1h3v2l-4 3-3 2h-1l-1-1h-3v-1zM109 160l2-2 4-3 2-2h3v3h1l-1 1-2 2-3 2-1 1v-1h-2l-2-1h-1M115 163l3-3 3-2 1-2h1l1 1 1 1h2l-1 1-2 3-3 2-1 1h-1l-1-1h-2v-1h-1M121 166l2-2 3-3 2-2h5l-1 1-3 3-2 4-1 2h-1v-1l-1-1h-1l-1-1h-1" class="st0"/><path d="M133 160v1h1l-1 3-1 3-1 2v2h-2v-5l1-2 1-2 1-2h1M107 135h20l5 1 5 3 1 3-1 3-2 3-2 3-3 3-2 3h-1v-2h-2l1-1 2-2 1-1h1l2-1-1-2h-3v-2h-3v-1l-1-1-1-1-1-2-1-1v-1l-1-1-1-1-1-1h-1l-1 1h-1l-2-1h-2l-2 1-1-1h-1v-1" class="st0"/><path d="M109 139h2l4-1 1-1h2v1l-1 1h-2l-3 1h-3v-1M111 143l2-1 4-2h2v1l-1 1a53 53 0 0 1-4 2h-3v-1M114 147l2-1 2-2h3v1l-1 1-1 1-2 1h-1l-1-1h-2 1zM118 150l1-1 3-2 1-1v1h1v2l-1 1-2 1h-1l-2-1M121 153l2-2 1-1 2-1h1v1c0 1 0 0 0 0h1v1l-2 2-2 1v1l-1-1-1-1h-1M130 156l1-2 2-2v3l-1 2v1h-1v-1h-1l-1-1h1zM148 126h3a112 112 0 0 1 15-5 86 86 0 0 1 36 3l4 2h2l1 1h1l-1 1h-1l-1 1v-1l-3-1a85 85 0 0 0-26-5l-9 1-8 1a83 83 0 0 0-9 3h-3l-1-1" class="st0"/><path d="m218 156-1-1v-3l-3-3-4-4a45 45 0 0 0-16-6 76 76 0 0 0-24-1 62 62 0 0 0-16 4 44 44 0 0 0-8 5l-2 1-1-1 1-2 4-2a39 39 0 0 0 4-5l1 1 2-2 1-4-1-3h-2v-1h-1l2-1 4-1 6-1 7-2h7l8 1 7 1 8 2 4 1v1h1l-2 2c-1 3 1 6 3 8 4 3 10 6 11 12v4" class="st0"/><path d="m220 153-2-6-2-4-6-5c-1-1-3-3-3-5 0-1-1-2-2-1l1-1 5-3 7-2 8-1h13l9 1a232 232 0 0 0 24 0l9-1h22l9 1h19l8-1h8l4-1 2 1 1 2 2 2v2h-2v-1h-1a116 116 0 0 0-6 3h-59a247 247 0 0 0-21 1h-2v-1h2l2-1 6-1 10-1 9-1 9-1a242 242 0 0 1 13 0h2v-1h-19a120 120 0 0 0-37 4 61 61 0 0 1-15 1h-17a24 24 0 0 0-9 3l-1 2-1 1-1 2v4l2 3 1 3 2 1 1 3v6l-1 1v2l-1-1v-2l-2-7" class="st0"/><path d="m220 139 1-1 3-2 6-1h21v2h-2l-1-1h-7v1h2l2 1h4v2l-1 1h-1v-1l-3-1h-5l1 1 3 1 2 1h2v1l-1 1v1h-1v-1l-1-1-3-1-2-1h-2l1 1h-1l2 1 2 2 2 1h1v1l-1 1h-1l-1-1-2-2-2-1-1-1h-1l-1 1 1 1 1 1 3 2 1 1v2h-1l-1-1-2-1-2-2-1-1-1-1-1 1v1h1l-1 1 2 1 2 2 2 2v1h-2l-1-1-3-3-1-1-1-1h-2v1l1 1h-1l1 1a126 126 0 0 0 4 3l1 1v1h-1l-1 1v-1h1l-1-1a47 47 0 0 1-5-5v-1l-2-2-2-3-1-3v-1l-1-1M224 152l1 1 2 1 1 2 1 1-1 1v1h-1v-2l-1-1-1-1-1-1v-2M223 163l1-1v-1l1 1 1 1 2 2 2 3 1 2v2h-1v-1l-1-1-2-1-1-2-1-3-1-1h-1" class="st0"/><path d="m225 159 1 1h1l1-1h2l3 4 3 2 1 2v2h-2 1l-1-1-1-1-2-1-1-2-2-2-2-1h-2v-2M230 158v-1h1c0 1 0 0 0 0h3l3 2 3 3 2 1 1 1-1 1v1h-1v-1l-2-1-2-1-2-3-2-1-2-1h-1v1-1M234 156v-1h3v-1h2l2 1 4 2 3 2v3h-2 1l-1-1h-2l-2-2-2-1-2-2h-4M240 152h1v-2h2l4 2 5 2 2 1v3h-2l-1-1h-1l-2-1-3-2-3-1-1-1h-1M244 148l1-1v-1s0 1 0 0l1 1h2l5 2 3 1 2 1v3h-2s1 0 0 0l-1-1-3-1-3-2-3-1-1-1h-1M248 144v-2h1l1 1 5 1 4 1h2l1 2v1l-1 1h-1v-1l-2-1-4-1-3-1h-2l-1-1M250 139l1-1h1l4 1h7l1 2v1l-1 1h-1l-1-1h-2l-4-1-3-1-1-1h-1M252 136v-1h1l5-1 4-1h3v1l1 2v1l-1 1-1 1v-1l-1-1-4-1h-7M266 139l1-2v-1h72l5-1h2l1 1 1 2v3l-1 1-1-1h-2l-3 1-4 1h-8l-10-1h-11a1138 1138 0 0 1-33-2l-5-1h-3l-1-1v1M262 145l2-1 1-1v-1h5l5 1h10l12 1 11 1h11l11 1h10v4l-2 2-1 1 1-1-2-1-3 1h-11l-8-1-11-1-11-1-10-2-8-1-6-1h-6M259 151l2-1 1-1 1-1h2l5 1 7 1 12 1a789 789 0 0 1 22 3l8 1h10l1 1-1 3-1 2v1h-1v-1l-1-1-2 1a167 167 0 0 1-7 0h-3l-6-1a237 237 0 0 1-26-5l-9-2-6-1-3-1h-5" class="st0"/><path d="m255 156 1-1h2l1-1v-1h4l9 3 10 2 9 2 13 2 9 2h3l1 1-1 2-1 3-2 1v-1h-3l-7-1-9-2-9-2-10-3a220 220 0 0 1-16-5h-2l-2-1M249 160l3-1h3l3 1 6 2a314 314 0 0 0 20 6l10 3 5 1h1v4l-1 1-1 1v-2h-15a93 93 0 0 1-14-6l-7-3a179 179 0 0 1-10-5l-2-1h-1v-1zM244 164l2-1h2l2 1a365 365 0 0 1 13 7l5 2 7 3 4 2h3l2 1-1 1v2l-1 2-1 1v-2h-1l-3-1h-3l-3-1a59 59 0 0 1-11-6l-7-5-3-2-2-2-3-1h-1v-1M238 167h4l3 1 4 4 6 4 6 4 4 2 2 1v1l-1 3-1 1v-1l-1-1-2-1-5-1-3-1-3-3-4-3a157 157 0 0 1-7-7l-1-1-1-1v-1M232 172v-2h3l2 1 1 2a253 253 0 0 0 10 9l3 3 2 1-1 1-1 2-1 1v-1l-1-1a180 180 0 0 1-5-2l-3-3-3-4-3-4-2-2-1-1M226 172l1 1h3v1l3 4 2 3 3 4 2 2 1 1v1l-1 1-1 1v-2l-2-1-3-1h-1l-2-3-2-5-1-1v-3l-1-1h-1v-2M225 181a27 27 0 0 0 3 3l1 3 1 2-1 1v1l-1 1v-2l-1-1-2-1v-7z" class="st0"/><path d="m198 208 3-1 3-2a82 82 0 0 0 9-5 81 81 0 0 0 7-8l1-2 2 1 3 1h3l1-2v-1l2 1 2 1h2l1 1-1 2-1 3a68 68 0 0 1-7 9l-3 3-3 1-4 2-3 2-5 2-2 2h-1l-1-1-2-3-3-4-1-1-1-1h-1M192 210l2-1 2-1h1l1 2 2 3 2 4 2 4a29 29 0 0 1 2 3v1l-1 2-1 2v-2l-1-1-2-1-1-1-2-4-2-5-1-4-2-1h-1z" class="st0"/><path d="M238 192h1a11 11 0 0 0 3-3s0 2-1 3l-1 2-1 4-3 5-4 4-4 4-7 5-5 3-4 2-3 1h-3l3-2 6-2 5-3a70 70 0 0 0 9-9l4-3 2-3 3-4 1-2-1-1v-1M187 211l1-1h3l1 1a261 261 0 0 0 4 12l2 3v1l-1 2-2 2 1-1-1-2-1-1-1-1-2-5-1-6-1-3-1-1h-1zM181 211h5v2l2 6 1 6 1 3v1l-1 2-2 2v-3l-2-1v-2l-1-6v-6l-1-2-1-1-1-1zM176 211h5v14l1 4v1l-2 1-2 2 1-1v-1l-2-2-1-1 1-5v-9l-1-2v-1zM170 211h4l1 1v4l-1 6v6l-1 2-1 1-1-1h-1l-1-2v-1l1-5 1-5 1-4-1-1h-1v-1zM165 210h3l1 1v1l-1 6-2 6a79 79 0 0 0-1 5l-1 1v-1h-2l-1-1v-2l2-5 2-6 1-2-1-1v-1h-1l1-1zM159 208l2 1h1l2 1-1 1-2 7a172 172 0 0 0-4 8v1h-1l-1-1h-2l-1-1v-1l3-4 2-5 2-3v-4z" class="st0"/><path d="M178 140c-27 0-47 16-47 35s20 35 47 35 47-16 47-35-20-35-47-35zm0 69c-27 0-45-17-45-34s18-33 45-33 45 16 45 33-18 34-45 34z" class="st0"/><path d="M178 153c6 0 11 2 11 9 0 8-5 10-11 10s-11-2-11-10c0-6 5-9 11-9m18 20c6-3 8-7 7-11-1-8-11-14-25-14-17 1-28 9-28 11s4 3 4 4v24c0 1-4 3-4 5 1 1 12 9 30 9 15 0 25-7 25-15 0-4-3-10-9-13zm-17 24c-6 0-12-1-12-10s6-11 12-11c5 0 11 2 11 11 1 8-5 10-11 10" class="st0"/></g></svg>