<svg xmlns="http://www.w3.org/2000/svg" xml:space="preserve" width="800" height="800" viewBox="0 0 66.7 66.7"><path d="M37.7 58.7c-.7.3-.7-.2-.3-.4 2.2-1 4-2.8 5.1-4.9-1.8 1.1-3.1.9-4.5 1.8s-2 2.7-3.6 3.8c1.8 1.8 3.2 2.3 4.2 2.3.8.1 1.6 0 2.4-.2 2-.4 3.7-1.4 5.3-1.7a14 14 0 0 0-8.6-.7zM30 61.7c-2.2.6-5.3 1.8-8.4 1.8l.8.9.5.1c3.4-.7 6-2.1 8.9-2.9l-1.8.1z"/><path d="M47.7 56.5c-1.8.1-3.5.6-5.1 1.2 2-.2 4.6 2.1 7.6.1l2.5-1.3c-1.2 0-2.9-.3-5 0zM41.1 57.2c3.2-.8 5.9-3.1 7.2-6.2-1.6 1.1-2.5.8-4.4 2.6-.7.7-1.5 2.7-2.8 3.6zM27.1 2.1c-3.6-.4-5.4.9-6.8 2.5l2.3-.1c1.7-.4 3.3-1.3 4.5-2.4zM19.1 7.3c1.4-.2 2.7-.8 3.8-1.7a6 6 0 0 0-5.7 1.7 6 6 0 0 0 1.9 0zM11.7 10c1.4-1.2 2.4-2.7 3-4.4a7.4 7.4 0 0 0-4.6 5.9l1.6-1.5zM12.7 10.1l1.9-.1c1.3-.3 2.5-.9 3.5-1.9-2-.4-4.1.4-5.4 2zM14.8 11c-3.1.1-4.3 1.1-5.6 3.2l1.8-.6a9.6 9.6 0 0 0 3.8-2.6zM20.2 2.7c-3.1 1-4.2 2.1-5 4.5 2.8-.9 3.9-2.3 5-4.5zM8.4 19.9c-2.5 1.3-4 4-3.6 6.8l.8-1.3a16 16 0 0 0 2.8-5.5zM.9 35.1l.4 2c.4 2.9 3.4 4.1 4.6 5.1-1-2.8-2.7-5.3-5-7.1zM13.6 50.5c-.4-.8-.7-2.4-1.4-3.8L10 43.5c-.6 3.5 1.9 5.6 3.6 7zM19.2 54.3c-.9-.9-1.6-3.1-2.4-3.9-1.5-1.6-1.9-1.5-3.2-3a8.6 8.6 0 0 0 5.6 6.9zM2.8 41.6l1 2c1 2.2 3.2 3.4 5.5 4.1a16.7 16.7 0 0 0-6.5-6.1zM9.5 52.5l1.7 1.4c2.2 1.9 5 1 7.5 1.5-3.5-2.4-7-2.5-9.2-2.9zM6.2 47.7l1.3 1.7c2 2.6 5 2.3 6.7 2.9-2.2-2.3-5-3.9-8-4.6zM8.9 43.4c.2-3.1-1.5-4.3-1.7-5.9-.7 2.6-.4 4.9 2 8l-.3-2.1zM5.8 39.3l.3-2.2c.5-2.2.2-3.5 0-5.6-1.9 2.9-1.7 5.1-.3 7.8zM2.2 34.9c.5.4 1 1.2 1.4 1.7.1-3.1-.9-6.2-2.7-8.7.4 2.2-.7 5 1.3 7zM4.3 32.3l.8-1.3c1.8-2.1 1.5-3.9 2.1-5.7-1.8 1.8-3.2 3.3-2.9 7zM4 23.3c1.3-2.8 1.9-5.1 1.3-8-.5 1.3-1.9 2.8-1.9 4.8.1.9.7 3.1.6 3.2zM3.2 29.9c.4-3.2 1-4.8-.5-8.4-.4 1.6-1.9 4.2-.5 6.7l1 1.7zM11.4 14.5a7.5 7.5 0 0 0-5.2 5.3L8 18.6c1.4-1.1 2.6-2.5 3.4-4.1zM6.4 16.9a13 13 0 0 0 2.8-7.1l-1.5 1.8c-.8 1-1.3 2.2-1.4 3.5-.1.6.1 1.1.1 1.8zM46.4 4.6C45 3 43.1 1.7 39.6 2.1A10 10 0 0 0 44 4.5l2.4.1zM43.9 5.5c1 1 2.3 1.6 3.7 1.8a6 6 0 0 0 1.9 0 6 6 0 0 0-5.6-1.8zM55 10l1.6 1.4A7.6 7.6 0 0 0 52 5.5c.7 1.8 1.7 3.3 3 4.5zM54 10.1a5.7 5.7 0 0 0-5.3-2 6.7 6.7 0 0 0 5.3 2zM51.9 11a11 11 0 0 0 3.8 2.7l1.8.6c-1.2-2.2-2.5-3.2-5.6-3.3zM51.6 7.2c-.9-2.4-2-3.5-5-4.5 1.1 2.2 2.2 3.6 5 4.5zM61.2 25.5l.8 1.3a6.7 6.7 0 0 0-3.6-6.8 16 16 0 0 0 2.8 5.5zM60.8 42.1c1.2-1 4.2-2.2 4.6-5.1l.4-2c-2.3 1.9-4 4.4-5 7.1zM56.7 43.5l-2.2 3.2c-.7 1.3-1 2.9-1.4 3.8 1.7-1.4 4.2-3.5 3.6-7zM53.1 47.4c-1.3 1.5-1.6 1.3-3.2 3-.8.9-1.6 3.1-2.4 3.9 3.1-1 5.2-3.7 5.6-6.9zM57.5 47.6c2.2-.8 4.5-2 5.5-4.1l1-2a18.3 18.3 0 0 0-6.5 6.1zM55.6 53.9l1.7-1.4c-2.2.5-5.7.5-9.2 3 2.5-.6 5.3.3 7.5-1.6zM52.5 52.3c1.7-.7 4.8-.4 6.7-2.9l1.3-1.7c-2 .6-5.4 1.6-8 4.6zM59.6 37.5c-.2 1.6-1.9 2.8-1.7 5.9l-.2 2.1c2.2-3.1 2.6-5.4 1.9-8zM60.6 37.1c.2.7.3 1.5.3 2.3 1.4-2.7 1.6-4.9-.4-7.8-.1 2-.4 3.2.1 5.5zM63.1 36.6l1.4-1.7c2-2 .9-4.8 1.3-7a14.3 14.3 0 0 0-2.7 8.7zM59.5 25.3c.6 1.8.3 3.6 2.1 5.7l.8 1.3c.3-3.7-1-5.2-2.9-7zM63.2 20.1c0-2-1.3-3.4-1.9-4.8a12 12 0 0 0 1.3 8c0-.1.6-2.3.6-3.2zM63.5 29.9l1-1.7c1.3-2.5-.2-5.1-.5-6.7-1.4 3.6-.9 5.2-.5 8.4zM58.7 18.6a32 32 0 0 1 1.7 1.2 7.2 7.2 0 0 0-5.1-5.3c.8 1.6 2 3 3.4 4.1zM60.5 15.1c0-1.3-.5-2.5-1.3-3.5l-1.6-1.8c.1 2.6 1.1 5.1 2.8 7.1-.1-.7.1-1.2.1-1.8zM28.8 55.5c-1.8-1.2-3.8-1.2-4.7-1.8 1.2 2 2.9 3.7 5 4.8.4.2.6.8-.1.5-2-.8-6.1-.5-8.6.8 1.7.4 3.8 1.6 6.1 1.8 2 .2 3.6-.7 6-.6 3.1.2 3.6 1.9 10.9 3.7.3.1.6 0 .8-.2l.7-.8a19 19 0 0 1-12.1-4.6c-1.4-1.3-3-2.9-4-3.6z"/><path d="M24 57.7c-1.6-.7-3.4-1.1-5.1-1.2-2.1-.2-3.7.1-4.9 0l2.5 1.3c2.9 2 5.5-.4 7.5-.1zM25.5 57.2c-1.2-1-2.1-2.9-2.8-3.6-2-1.8-2.8-1.5-4.4-2.6 1.3 3.1 4 5.4 7.2 6.2zM23.1 25.2l-.2.1h-.4c-.3-.1-.6-.1-.8 0l-.4.1c-.2.1-.2 0-.2-.1l.1-.2c.1-.2.1-.4-.1-.6-.2-.1-.4 0-.5.1l-.4.3c-.1.1-.1.2.1.2s.2.2.2.4l-.1.5c-.1.2 0 .5.3.6H21.9c.5 0 .9-.3 1.1-.8l.2-.4c0-.1 0-.3-.1-.2zM30.7 25.2l-.2.1h-1.2l-.4.1c-.2.1-.2 0-.2-.1l.1-.2v-.6c-.2-.1-.4 0-.5.1l-.4.3c-.1.1-.1.2.1.2s.2.2.2.4l-.1.5c-.1.2 0 .5.3.6h1.3c.5 0 .9-.3 1.1-.8l.2-.4c0-.1-.2-.3-.3-.2zM33.4 14.9c.6 0 1.2-.5 1.2-1.2s-.5-1.2-1.2-1.2-1.2.5-1.2 1.2.5 1.2 1.2 1.2zM28.5 15.3c.6-.1 1.1-.7 1-1.3-.1-.6-.7-1.1-1.3-1-.6.1-1.1.7-1 1.3.1.7.7 1.1 1.3 1zM23.1 14.3c-.6.2-1 .8-.8 1.4.2.6.8 1 1.4.8h.1c.6-.2.9-.9.7-1.5-.2-.5-.8-.9-1.4-.7zM18.3 16.3c-.6.3-.8 1-.5 1.5.2.6.8.9 1.4.7.6-.2.9-.8.7-1.4l-.2-.4c-.2-.4-.9-.7-1.4-.4zM38.2 15.3c.6.1 1.2-.4 1.3-1 .1-.6-.4-1.2-1-1.3-.6-.1-1.2.4-1.3 1-.1.6.3 1.2 1 1.3zM42.9 16.5c.6.2 1.3-.1 1.5-.7.2-.6-.1-1.3-.7-1.5-.6-.2-1.3.1-1.5.7-.3.6.1 1.3.7 1.5zM47.4 18.3c.6.3 1.3.1 1.6-.5.3-.6.1-1.3-.5-1.5-.6-.3-1.3-.1-1.6.4-.3.6-.1 1.3.4 1.6h.1zM35.8 36.2c.2 0 .2.2.2.4l-.1.5c-.1.3 0 .5.3.6H37.4c.5 0 .9-.3 1.1-.8l.2-.4c.1-.2-.1-.3-.2-.2h-1.4l-.4.1c-.2.1-.2 0-.2-.1l.1-.2v-.6c-.2-.1-.4 0-.5.1l-.4.3c-.2.1-.1.3.1.3zM42.9 36.2c.2 0 .2.2.2.4l-.1.5c-.1.3 0 .5.3.6H44.5c.5 0 .9-.3 1.1-.8l.2-.4c.1-.2-.1-.3-.2-.2l-.2.1H45c-.3-.1-.6-.1-.8 0l-.4.1c-.2.1-.2 0-.2-.1l.1-.2c.1-.2.1-.4-.1-.6-.2-.1-.4 0-.5.1l-.4.3.2.2zM24.4 32.1c.2 0 .2.2.2.4l-.1.5c-.1.3 0 .5.3.6H26c.5 0 .9-.3 1.1-.8l.2-.4c.1-.2-.1-.3-.2-.2l-.2.1h-.4c-.3-.1-.6-.1-.8 0l-.4.1-.2-.1.1-.2c.1-.2.1-.4-.1-.6-.2-.1-.4 0-.5.1l-.4.3.2.2zM39 43.1c.2 0 .2.2.2.4l-.1.5c-.1.3 0 .5.3.6H40.6c.5 0 .9-.3 1.1-.8l.2-.4c0-.1-.1-.3-.2-.2l-.2.1h-1.2l-.4.1c-.2.1-.2 0-.2-.1l.1-.2v-.6c-.2-.1-.4 0-.5.1l-.4.3c-.1.1-.1.3.1.2z"/><path d="M25.6 13.4a2.9 2.9 0 0 0-4.1-.2c-.5.5-.8 1.1-.9 1.8-.5-.4-1.1-.6-1.8-.6a2.8 2.8 0 0 0-2.8 2.9c0 1.2.8 2.3 2 2.7v2.6h-5.3l5.2 5.5v13.6c0 2.3.9 4 3.8 4.3l7.6.9c2 .2 3 .5 4.2 2.2 1.1-1.6 2.2-2 4.2-2.2l7.6-.9c2.8-.4 3.8-2 3.8-4.3V28.2l5.1-5.5h-5.3v-2.6a3 3 0 0 0 2-3.6 3 3 0 0 0-3.6-2l-1 .5a2.8 2.8 0 0 0-3.2-2.5c-.7.1-1.3.4-1.8.9a3 3 0 0 0-3.6-2c-.7.2-1.2.6-1.6 1.2-.7-1.4-2.4-2.1-3.8-1.4-.6.3-1.1.8-1.4 1.4a2.9 2.9 0 0 0-4-.7c-.7.3-1.1.9-1.3 1.5zm-6.9 13.9-3.3-3.5h17.7v3.5H18.7zm7.1 16.3h-6.4c-.2-.5-.4-1-.4-1.5h6.8v1.5zm0-3.8H19v-5h6.8v5zm7.3 7.3a6 6 0 0 0-3.1-1.2l-3.6-.4v-5.1h6.8l-.1 6.7zm0-9h-6.7v-1.4h6.8l-.1 1.4zm0-3.8H19v-3.5h14.1v3.5zm0-4.1H19v-2.3h14.1v2.3zm.5-6.4h6.8v5h-6.8v-5zm6.8 7.3v1.5h-6.8v-1.4l6.8-.1zm4.5 13.8-8.2.9a6 6 0 0 0-3.1 1.2v-5.2h14.1c0 1.8-.6 2.9-2.8 3.1zm2.8-3.6H33.6v-2.4h14.1v2.4zm0-2.9H33.6v-3.6h14.1v3.6zm0-4H41v-5h6.8v5h-.1zm2-8.8L48.3 27H41v-1.5l8.7.1zM28 12.1c1.2-.2 2.3.6 2.5 1.8v.7l.8-.1-.1-.7c-.1-1.2.8-2.2 2-2.3s2.2.8 2.3 2v.3l-.1.7.8.1v-.7c.1-1.2 1.2-2 2.4-1.9s2 1.2 1.9 2.4c0 .3-.1.6-.3.8l.9.2.1-.6a2.1 2.1 0 1 1 4 1.4l-.3.5.8.3.2-.6c.5-1.1 1.8-1.5 2.9-.9 1.1.5 1.5 1.8.9 2.9a2 2 0 0 1-.9.9l-2.7 1.5-.4-2.7-1.6-.7-2 1.6-.8-2.6-1.7-.4-1.9 2-1.2-2.5-1.7-.1-1.5 2.2-1.6-2.2-1.7.1-1.2 2.5-1.9-2-1.7.4-.8 2.6-2.2-1.6-1.6.7-.3 2.7-2.7-1.5c-1-.6-1.4-1.9-.9-2.9.6-1 1.9-1.4 2.9-.9.4.2.7.5.9.9l.2.6.8-.3-.3-.6c-.2-1.2.6-2.3 1.8-2.5s2.3.6 2.5 1.8l.8-.2-.2-.6c0-1.3.7-2.4 1.9-2.5z"/></svg>