<svg xmlns="http://www.w3.org/2000/svg" width="800" height="800" viewBox="0 0 100 100"><path fill="#000" fill-rule="evenodd" d="M97 90.3v-4.1c0-3.2-2.5-6.2-2.5-6.2-13.3-14.7-35.7-36.5-44-37.2H50c0 10 .3 9.5-5.6 12A154 154 0 0 0 5 80.6c-2.3 2.6-2 5.2-2 5.2v4.4c8.8-7.4 34.7-28.7 47-28.7 12.3 0 38.2 21.3 47 28.8ZM96.6 78a14 14 0 0 1 3.4 8.2l-.2 6.7c0 .2-.1 1.6-.9 2a1 1 0 0 1-.4.1c-.3 0-.6-.1-1-.4-.4-.3-34.2-30.2-47.5-30.2-13.3 0-47.1 29.9-47.5 30.2-.4.3-.7.4-1 .4a1 1 0 0 1-.4-.1c-.8-.4-.9-1.8-.9-2L0 86.2c0-4.4 3.2-8 3.4-8.2C4.8 76.4 38 39.8 50 39.8S95.2 76.4 96.6 78Zm.3-22.6.1-4c0-3.2-2.6-6.2-2.6-6.3C81.2 30.4 58.8 8.7 50.4 8H50c0 10 .3 9.5-5.6 12-.6.3-20.4 8.7-39.3 25.8C2.8 48.4 3 51 3 51v4.4c8.8-7.5 34.7-28.7 47-28.7 12.3 0 38.2 21.2 47 28.7Zm-.3-12.2a14 14 0 0 1 3.3 8.1l-.2 6.8c0 .1 0 1.6-.9 2a1 1 0 0 1-.4 0c-.3 0-.6 0-1-.4-.3-.3-34-30-47.4-30-13.3 0-47.1 29.7-47.5 30-.3.3-.6.5-1 .5a1 1 0 0 1-.3-.1c-.8-.4-1-1.9-1-2L0 51.3c0-4.3 3.3-8 3.4-8.1C4.8 41.6 38 5 50 5s45.2 36.6 46.6 38.2Z"/></svg>