<svg xmlns="http://www.w3.org/2000/svg" xml:space="preserve" width="800" height="800" viewBox="0 0 100 100"><path d="M47 93.8c-9.2-.5-15.5-2.4-19.5-5.8-6.9-5.9-10.8-14.3-17.5-37.5l-2.3-7.4A296.6 296.6 0 0 1 .3 11.3c-.3-1.6.4-3 1.8-3.4a657 657 0 0 1 69.5-1.6l7.8.3c8.8.3 17.3.8 18.5 1.2 1.2.4 2.1 1.9 1.8 3.2l-.6 3.3c-4 22.7-14.6 57-20.3 66.3-2.5 4.3-6.3 8-9.6 9.7a51 51 0 0 1-22.1 3.5zm8.2-9.4c9.3-.8 14.6-4.2 19-12.4 2.3-4 7.3-16.6 11.1-27.7C90 30.6 96.3 8.5 95.6 8c-.5-.3-.9 0-1 .7-1.5 7.2-5.5 19.4-8.2 25a65.7 65.7 0 0 1-13 18l-1.1 1-1.6 3.9C63.6 74.3 62.4 75.4 50 75.4c-12.3 0-13.8-1.3-20.6-18.5L28 53.2a68.3 68.3 0 0 1-12.4-15.8C12 31.1 8.5 21.3 6 10.7 5.3 7.8 5.3 8 4.9 8c-.7.1-.4 1.9 1.5 8.9a386.6 386.6 0 0 0 17 49.9c3.2 7.6 6 11.5 10.2 14.3 3.2 2 6.1 3 11.9 3.5h9.7zm.2-9.6c5.1-.6 7.6-2.6 10.2-7.8 1-2 5.4-12.4 5.8-14l.1-.3h-2.2l-5.8.3a618.6 618.6 0 0 1-32.7-.2l-2.3-.1v.3c.2.4 3 7.7 4.3 10.6 2.7 6.6 5 9.4 8.5 10.5 3 1 9.7 1.3 14.1.7zm10-22.5 5.7-.2 1.4-.1.7-.7a74 74 0 0 0 8.3-10c5-7.4 8.8-16.8 12.2-30.6.8-3.1 1-2.8-1-3a783.5 783.5 0 0 0-81.5-.1l-3.8.2c-2 0-1.9-.1-1.1 2.7C11 29.8 16.6 40.8 26 50.5l1.4 1.5h1.2l12.5.5c3.5.1 20.2 0 24.2-.2zM18.2 31.8c-.2 0-.2-1-.2-5.5V21h4.4l5 .1c5.7 1 6 9.2.4 10.7-1 .3-9.3.4-9.6.1zm8.3-2.8c1.9-1.1 1.7-4.7-.3-5.3-.6-.2-4.2-.2-4.4 0V29c.2.4 4 .3 4.7 0zm5.1 2.9c0-.3 2.2-5.4 3.9-8.6 1-2 1.7-2.4 4.1-2.4 3.2 0 3.2 0 7 8.5C48 32.3 48 32 45.9 32c-2.1 0-2 0-2.5-1l-.4-.9h-6.4l-1 1.9h-2l-1.9-.1zm10-4.3c0-.1-1.8-4-2-4-.2 0-2 4-2 4 .2.2 3.8.2 4 0zM51.8 32c-4.3-.6-6-6.2-3-9.3 1.6-1.5 2.4-1.7 7.2-1.7h3.7v2.6l-7 .1-.4.4c-1.4 1.2-1.3 4 .2 5 .4.2.7.2 3.8.2l3.4.1V32h-3.6l-4.3-.1zm9.7 0a38 38 0 0 1-.1-5.6V21H65v11l-1.7.1-1.8-.1zm4.8 0c-.2-.3 4-9.4 4.6-10 1.4-1.5 5.7-1.4 6.8.1.7 1 4.8 9.7 4.6 10h-3.8l-1-1.9h-6.4l-.4.8c-.6 1.2-.4 1.1-2.5 1.1a9 9 0 0 1-2 0zm10-4.3c0-.3-1.8-4-2-4-.2 0-.3.3-1.1 2-1.1 2.4-1.2 2.2 1 2.2 1.7 0 2 0 2-.2z" style="stroke-width:2.90589643"/></svg>