<svg xmlns="http://www.w3.org/2000/svg" width="800" height="800" viewBox="0 0 24 24"><path d="M.2 14.4h1.5l.2-.2V9.9a.2.2 0 0 0-.2-.3H.2a.2.2 0 0 0-.2.3v4.3l.2.2M2.8 10l1 3.7c0 .3.3.4.4.5.2.2.3.2.6.2H6c.5 0 .9-.3 1-.8l1-3.6a.4.4 0 0 0 0-.1.2.2 0 0 0-.3-.3h-.8a.2.2 0 0 0-.3.2L5.8 13l-.1.2a.1.1 0 0 1-.1-.1l-.8-3.1c0-.2-.1-.3-.2-.3H3c-.2 0-.2.2-.2.3m7.7 1.6V11c0-.2.1-.3.3-.3h1.7a.2.2 0 0 0 .2-.2v-.7a.2.2 0 0 0-.2-.3h-3c-.4 0-.9.4-.9 1v2.8c0 .6.5 1 1 1h2.9c.1 0 .2 0 .2-.3v-.7a.2.2 0 0 0-.2-.2h-1.7c-.2 0-.3 0-.3-.2v-.4H12a.2.2 0 0 0 .3-.3v-.6a.2.2 0 0 0-.3-.2h-1.5zm5.5-.7a11.9 11.9 0 0 1 1.3 0 .2.2 0 0 0 .3-.2v-.8a.2.2 0 0 0-.2-.2 12.6 12.6 0 0 0-1 0h-1.2a2 2 0 0 0-1.7 1.6 5.2 5.2 0 0 0 0 .8v.8a2 2 0 0 0 1.6 1.6 9.8 9.8 0 0 0 2.3 0 .2.2 0 0 0 .2-.2v-.7a.2.2 0 0 0-.2-.3h-.8a13 13 0 0 1-.6 0 .7.7 0 0 1-.6-.6 6.3 6.3 0 0 1 0-1.1.7.7 0 0 1 .6-.7m8 1.3c0-.5 0-.9-.2-1.2a2 2 0 0 0-1.6-1.3 9.2 9.2 0 0 0-1 0H20a2 2 0 0 0-1.6 1.4 3.8 3.8 0 0 0 0 2.1 2 2 0 0 0 1.6 1.3h2.3a2 2 0 0 0 1.6-1.5l.1-.8m-2 0v.6a.7.7 0 0 1-.6.5 8.6 8.6 0 0 1-.5 0 .7.7 0 0 1-.7-.5 5.3 5.3 0 0 1 0-1.4.7.7 0 0 1 .6-.6 8.6 8.6 0 0 1 .6 0c.3 0 .6.3.6.6v.7"/></svg>