<svg xmlns="http://www.w3.org/2000/svg" xml:space="preserve" width="800" height="800" viewBox="0 0 261.9 263.7"><path d="m220.2 23.5-.4-2.6-2.4-1.1a213.5 213.5 0 0 0-176.2-.1l-2.4 1.1-.4 2.6a296.5 296.5 0 0 0 5.9 115.2c13.6 52.6 41.3 93.6 82.1 122.1l2.8 2 2.8-2c40.8-28.4 68.5-69.5 82.1-122.1a293.3 293.3 0 0 0 6.1-115.1zm-15.6 112.7c-12.7 49-38 87.4-75.3 114.4-37.3-27-62.6-65.5-75.3-114.4a283.2 283.2 0 0 1-6.1-108.5 200.3 200.3 0 0 1 80.9-16.8c38.8 0 68.8 11 82 16.8 2.6 18.4 6.2 60.8-6.2 108.5z"/><path d="m59.5 48.7 5.9-2.2.8 2.1-8.4 3.2-4.3-11.9 2.4-.9zM96.1 41.3l-2.4.5-2-10.4h-.1l-.3 10.8-2.5.5-4.3-9.9 2 10.4-2.4.4-2.4-12.4 3.8-.7 4.1 9.3.3-10.2 3.8-.7zM152.6 33.1l5.3.5-.7 6.8-1.8-.2-.1-1.6c-.7.7-1.8 1.7-4.1 1.5-3-.3-5.6-2.8-5.1-7.2.4-3.4 2.6-6.5 6.8-6 3.9.4 5.1 3.1 5.1 4.8l-2.6-.3c0-.5-.7-2.2-2.5-2.4-1.9-.2-3.7.9-4.1 4.2-.4 3.4 1.4 4.5 3.2 4.7.6.1 2.5 0 3.3-2.5l-2.9-.3.2-2zM165.1 36l-1 5.6-2.6-.5 2.3-12.5 2.6.5-.9 4.7 4.9.9.8-4.7 2.6.4-2.2 12.5-2.6-.4 1-5.6zM178.6 44.6 176 44l3-12.4 2.5.6zM194.1 35.8l2.4.7-3.7 12.1-2.5-.7-2.3-10.2-2.7 8.7-2.3-.8 3.7-12.1 2.6.8 2.3 9.9zM199.5 51.1l-2.5-.9 4.5-11.9 2.5 1zM181.7 130c-2.3-.7-4.9-2.1-8.1-5.5.2-1.5.3-2.5.2-3.4s-.4-1.5-.8-2.4c-.4-.9-.9-1.7-1.2-3-.3-1.3-.5-3.1-.2-6s.2-7.6-1-12.7a34.9 34.9 0 0 0-7.7-15.2c1.1-3.4 1.7-5.8 1.8-7.7.1-1.9-.2-3.3-1-5-.8-1.6-2.8-3-5.8-3.9-3-.9-6.9-1.4-11.4-1.4s-11 .4-16.3.3c-5.3-.1-9.6-.5-9.6-1.9s.7-2 1.7-2.4 2.3-.4 3.3-.5c1.5.6 3.7 1 5.9 1.1 2.2.2 4.6.2 6.4.2 1.9 0 3.6-.6 5.5-1.1 1.8-.5 3.8-1.1 6-1.1-1.9-.6-4.3-1.5-6.8-2.2-2.5-.7-5-1.1-7.1-.6-.8-.7-1.3-1.3-2.2-1.5a8 8 0 0 0-4.1.4l-4.3.9a21 21 0 0 0-3.2.5c-1.3.3-3 .5-4.4 1.2a4 4 0 0 0-2.5 4c0 2.1.8 4 2.9 5.3 2.2 1.3 5.8 2.1 11.5 2 5.8-.1 12.1-.2 17.3 0 5.2.3 9.3 1 10.7 2.6 1.4 1.6 1.8 2.7 1.6 3.6-.2.9-1 1.6-2 2.5h-4.3a18 18 0 0 1-5.8-1.3 15 15 0 0 0-12.7.1c-1.9 1-6.5 3.3-11.2 6.7A32.6 32.6 0 0 0 111 96.9c-2.3 6.1-3.4 9.9-4.1 12.6-.7 2.7-.9 4.1-1.4 5.5-.5 1.4-1.3 2.8-2 4.4-.7 1.6-1.3 3.3-1.2 5.3 0 2-.1 4.4-.4 6.7l-.9 6.1-1.2 5.7c-.4 2.2-.7 4.5-.6 7a45.3 45.3 0 0 1-2.1 13.9c-.7 1.9-1 3.5-1.2 5.1-.3 1.5-.6 3-1.4 4.5l-3.2 5.2-3.2 4.7c-.9 1.1-1.3 2.5-1 3.6.3 1.1 1.2 2 3.1 2.2a7 7 0 0 0 4.7-1c1.2-.8 2-1.9 2.2-3.2.2-1.3.2-3 .3-4.8.1-1.8.2-3.6.8-5l.6-1.5.6-1.5c.6-1 1-1.4 1.5-1.7.4-.3.9-.6 1.5-1.3s1.6-2.9 2.4-5.2a20 20 0 0 0 1.4-6.7c0-1.8.1-3.2.4-4.3.3-1.2.7-2.1 1.2-3l1.2-2.7c.5-.8 1.1-1.3 2.2-1.2 1.1.1 1.5.7 1.6 1.4.1.7.1 1.6.5 2.4l1.3 2.3c.5.7 1.2 1.3 2.3 1.7 1 .4 1.8 1.1 2.3 2 .4.9.4 1.9-.2 2.8-.6.9-1.5 2.4-2.2 4a12 12 0 0 0-1.2 4.1c0 1 .2 2.5 0 4.1s-.6 3.2-1.9 4.5a27.2 27.2 0 0 0-2.9 3.7c-.7 1.1-1 2.1-1 2.7 0 .6.3 1.4.9 2.1.7.7 1.7 1.1 3.4 1.1 1.6 0 2.9-.4 3.8-1a5 5 0 0 0 1.9-2.6c.4-1.1.3-2 .1-2.7-.2-.7-.4-1.3-.4-2.1s.2-1.6.5-2.6c.3-.9.6-1.9.7-2.8a15.6 15.6 0 0 1 2.7-7.1c1-1.4 1.5-2.6 2-3.7s.8-2 1.4-2.9l1.1-1.5c.2-.1.5.1 1.1.4.6.4.8.7.6 1.2-.1.4-.5 1-.9 1.6l-1.9 2.9-2.1 3.2c-.5.9-.8 2-.6 3s.8 1.7 2.2 1.8c1.4.1 2.5.1 3.2-.1.8-.2 1.2-.7 1.3-1.4.1-.8.3-2 .7-3.2.3-1.2.7-2.4 1.2-3.2.5-.8.8-1.5 1-2.1.2-.6.2-1.1.2-1.5.8.7 1.4 1.6 2 2.5l1.4 2.7a6 6 0 0 0 2.9 2.7c1.6.8 3.9 1.3 7 1.2 3.1-.2 4.7-.3 5.6-.6s1.1-.7 1.4-1.5c.4-.8 1.2-2.3 1.6-3.8.4-1.5.4-3.1-1-4 .2-1.3.6-3 1.1-4.6.5-1.6 1.3-3.2 2.3-4.3 1-1 2.4-2.1 3.6-3 1.2-.9 2.3-1.8 2.6-2.4 1.6.9 3.2 1.9 4.3 3.5 1.2 1.6 1.9 3.6 2.1 6.4 0 1.5.2 2.9.5 4.2l.6 3 .2 2.4c0 .9 0 1.7.2 2.6s.7 1.7 1.4 2.2c.7.6 1.6.9 2.4.7.8-.1 1.4-.8 1.9-1.7.5-.9.8-2 .8-2.8 0-.9-.3-1.5-.6-2L177 161c-.4-.3-.6-.7-.7-1.2s0-1.1.4-2.1.3-1.9 0-2.6c-.3-.7-.7-1.3-1.1-1.7s-.8-1.4-1.2-2.8c-.3-1.4-.5-3.1-.5-4.7s-.1-3.5-.6-5.2c-.5-1.6-1.2-3-2.2-3.6 2.9-.2 6.2-.4 9.1-1.3s5.5-2.4 7-5c-1.3-.3-3.2-.1-5.5-.8zm-9.3 3.1c-2.6-.6-4.8-1.7-5.9-3a10 10 0 0 0-4.9-3.1c-.9-.2-2.3-.8-3.8-1.4l-3.8-1.7-1.2 1.5-2.4 2.2c-.9.8-1.1 1.5-1.1 2 .1.5.5 1 .7 1.4l2.6 2.4c1.2 1 2.5 2 2.9 2.5-1.4 0-2.4-.1-3.6-.5-1.2-.4-2.5-1.1-4.7-2.5s-2.9-2.8-2.9-4.1c0-1.2.6-2.3.9-2.7l1.9-1.7 1.9-1.5c.3-.3.6-.6.5-.9 0-.3-.3-.5-.8-.4a21 21 0 0 0-8 2.7c-1.7 1.1-2.4 2.2-2.5 3-.1.8.1 1.5.4 2.2.3.7.9 1.4 1.7 2.1a3 3 0 0 1 1 2.6c0 .9-.4 1.7-.8 2.2l-.9 1.1c-.2.3-.3.9-.6 1.9a53.9 53.9 0 0 0-.6 10.7c.5-.8 1.2-1.5 1.9-2s1.5-.8 2-1c.4 3.9.2 6.6-.2 8.6-.3 2-.9 3.3-1.2 4.4-.1.3-.2.5-.4.4-.2 0-.4-.2-.5-.6l-1.4-3.6a9.8 9.8 0 0 0-2-3.1c-1.9-1.9-2.8-2.9-3.2-3.7s-.3-1.4-.3-2.6c-3-1.5-4-3.3-4-5.1 0-1.7.9-3.3 1.7-4.5a16.9 16.9 0 0 0 2.7-6.9c.1-.7-.3-2-.8-3.3a15 15 0 0 0-2.2-3.7c-.2-.1-.7-.2-1.3-.1-.6.1-1.2.4-1.6 1.3a3 3 0 0 1-1.5 1.6c-.6.2-1.2.3-1.8.2h-2.1c-.7.1-1.4.5-1.9 1.2s-1.1.7-1.8.5a10 10 0 0 1-1.8-.9l-1.2-.7c-.4-.2-.9-.3-2-.2-1.1.1-1.5.8-1.8 1.7-.4.8-.7 1.7-1.6 1.9-.9.3-1.6-.2-2-1.2a19.7 19.7 0 0 1 .8-11.6c.9-2.8 2-5.4 2.6-6.7a129.7 129.7 0 0 0 4.5-14.5c.6-2.3 1.9-4 3.6-5.6s3.5-3 5.2-4.7c1.7-1.7 3.7-3.2 5.7-4.3 2-1.1 4-1.8 5.5-1.8s3.1.9 4.4 1.8c1.3 1 2.4 2 2.9 2.6.5.6 1 1.9 1.5 3.3s1 2.9 1.6 3.8c.6.9 1.1 2.2 1.5 3.8l1.1 5.1c.3 1.8 1 3 1.7 4s1.5 1.8 2 2.7c.5.9 1.1 3 1.8 5.3s1.6 4.9 2.7 6.6a9.8 9.8 0 0 0 4.5 3.6c1.7.8 3.3 1.1 4.1 1.4.8.2 1.4.3 2 .6.6.3 1.3.9 2.3 2.1 1.4 1.6 3.5 3 5.5 4s3.8 1.6 4.6 1.9c-2.3 1.5-5.2 1.5-7.8 1zM72.8 33.5l-2.9.8-.9 13.4 2.7-.8.1-2.8 4.5-1.3 1.5 2.3 2.8-.8-7.8-10.8zm-.9 8.4.2-5.3L75 41l-3.1.9zM110.6 35.8c-.1-1.2-.7-2.4-2.3-2.8.5-.3 1.5-.9 1.2-2.8-.1-1.3-1.1-3.1-4.2-2.8l-6.1.7 1.4 12.6 5.3-.6c2.6-.3 3.2-.8 3.8-1.6.7-.7 1-1.7.9-2.7zM102 30l3-.3c1.2-.1 2 .1 2.1 1.1.1 1-.7 1.5-1.7 1.6l-3.1.3-.3-2.7zm4.1 7.8-3.2.4-.4-3.4 3.3-.4c.9-.1 1.9.2 2.1 1.3.2 1.4-.5 2-1.8 2.1zM120.4 26c-1.7.1-6 1-5.8 6.9.2 5.9 4.7 6.5 6.3 6.4 1.7-.1 6-1 5.8-6.9-.2-6-4.7-6.5-6.3-6.4zm.4 11.1c-1.4.1-3.5-.7-3.6-4.3-.1-3.5 1.8-4.5 3.3-4.6 1.4-.1 3.5.7 3.6 4.3.1 3.5-1.9 4.5-3.3 4.6zM141.3 36.2c.1-2.4-.5-2.8-1.5-3.3 1.3-.4 2-1.6 2-3 0-1.1-.5-3.6-3.9-3.7l-6.4-.2-.4 12.7 2.6.1.2-5 2.7.1c2 .1 2 .7 2 2.5 0 1.3 0 2 .2 2.6l2.9.1v-.3c-.5-.3-.5-.8-.4-2.6zm-4.2-4.4-3.1-.1.1-3.4 3.3.1c1.5 0 1.8 1 1.8 1.7-.1 1.3-.8 1.8-2.1 1.7z"/></svg>