<svg xmlns="http://www.w3.org/2000/svg" width="2500" height="2500" viewBox="0 0 192.8 192.8"><g fill-rule="evenodd" clip-rule="evenodd"><path fill="#fff" d="M0 0h192.8v192.8H0V0z"/><path d="M180.5 38.5c7.7 74.9-26 121.8-84.3 145.8-62-26.8-90-76-84.3-146.2C68-1.5 124.3-1.4 180.5 38.5z"/><path fill="#fff" d="M96.2 11.5c41.6 0 75.5 34 75.5 75.5 0 41.6-34 75.5-75.5 75.5S20.7 128.6 20.7 87s34-75.5 75.5-75.5z"/><path fill="#fff" d="M96.2 11.5c41.6 0 75.5 34 75.5 75.5 0 41.6-34 75.5-75.5 75.5S20.7 128.6 20.7 87s34-75.5 75.5-75.5z"/><path d="M96.2 15.7c39.2 0 71.3 32 71.3 71.3s-32 71.3-71.3 71.3-71.3-32-71.3-71.3 32-71.3 71.3-71.3z"/><path fill="#fff" d="M96.2 17.4A69.8 69.8 0 0 1 165.8 87a69.8 69.8 0 0 1-69.6 69.6A69.8 69.8 0 0 1 26.6 87a69.8 69.8 0 0 1 69.6-69.6z"/><path d="M101.6 32a55.5 55.5 0 0 1 49.8 51.5l-11.3-1v11l11.2-.9a55.5 55.5 0 0 1-48.7 49.4l1.4-27.3H89.4l1.8 27.4a55.1 55.1 0 0 1-33-14.8v8.4H53v-14.1a55.2 55.2 0 0 1-12-30.4l12 1.6V82l-12 .3c.9-9.5 4-18.4 9.1-26h-2.6l8-17 3.4 6.8a55.1 55.1 0 0 1 33-14.3l-1.8 29.3h14L101.6 32z"/><path fill="#fff" d="M105.8 61.1H140v19.7l9.5.8a53.9 53.9 0 0 0-46.2-47.8l2.4 27.3zm-41.6-4.8h-6v4.8h30.3l1.7-27.4a53.7 53.7 0 0 0-30.5 14l4.5 8.6zm76 38.9v19.5h-34.5l-1.3 25.4a53.8 53.8 0 0 0 45-45.7l-9.3.8zM53 94.4v24.4A53.3 53.3 0 0 1 43 93.2L53 94.4zm5.3 30.6v-10.3h29.4l1.7 25.5A53.5 53.5 0 0 1 58.3 125z"/><path fill="#fff" d="M138.2 97.4c-1 0-1.3-1-2.2-4.4l-4.5-16.6h-.5l-4.5 17.3c-.6 2.4-.9 3.5-2 3.7v.8h4v-.8c-.6 0-1.6-.1-1.6-1.3 0-.5.4-1.9 1-4.1h4.5c.3 1 .9 3.3.9 4.2 0 1-.4 1-1.6 1.2v.8h6.5v-.8zm-14.3 0c-1-.1-1.9-.2-1.9-2.2V79.9c0-2.2 1-2.2 2-2.3v-.8h-7.1v.8c.9.1 1.9.2 1.9 2.3v15.3c0 2-.8 2-2 2.2v.8h7.1v-.8zm-8.7-4c-1.7 3-3.2 3.9-4.8 3.9-.6 0-2.2-.5-3-2.8-.8-2-1-5-1-6.9 0-5.3.9-10.2 3.8-10.2 2.3 0 4 3.7 4.7 6.5h.5v-7.4h-.5c-.2.8-.4 1.4-1 1.4-.5 0-2-1.5-3.9-1.5-4.2 0-7.1 4.9-7.1 11.3 0 6 2.6 11.1 7.2 11.1 2.6 0 4.2-2 5.7-4.6l-.6-.8zm-27.5 4.8h4.6v-.8c-1.5-.2-2-.9-2-3.1V81.6h.1l9 17.2h.5V80.2c0-1.5.1-2.3 1.6-2.6v-.8h-4.3v.8c1.6.2 1.8 1.3 1.8 3.2v9.6l-7-13.6h-4.2v.8c.2 0 .5.1 1.7 2.3v15c0 2-.6 2.3-1.8 2.5v.8zm-1-.8c-1 0-1.3-1-2.2-4.4L80 76.4h-.6L75 93.7c-.6 2.4-1 3.5-2 3.7v.8h4v-.8c-.6 0-1.6-.1-1.6-1.3 0-.5.4-1.9 1-4.1h4.5c.2 1 .9 3.3.9 4.2 0 1-.4 1-1.6 1.2v.8h6.5v-.8zm-14.5-6.3h-.6c-.9 3.5-2 6.1-5 6.1-1.4 0-1.9-.2-1.9-1.7v-15c0-2.7.7-2.8 2-2.9v-.8h-7v.8c1 .1 1.8.2 1.8 2.3v15.3c0 1.9-.6 2-1.8 2.2v.8h11.7l.8-7.1zM53 56.3h-.8a53.6 53.6 0 0 0-9.3 24.3l10.1-.3v-24z"/><path d="m128.1 90.8 2-7.7 2 7.7h-4zm-51.5 0 2-7.7 2 7.7h-4z"/></g></svg>