<svg xmlns="http://www.w3.org/2000/svg" xml:space="preserve" width="800" height="800" viewBox="0 0 294.6 296.1"><path d="M174.5 139.2v-2.9 2.9zM174.5 136v-.9.9zM174.5 134.4v-.5.5zM118.6 137.8v2.7-2.7zM118.5 133.5v2.5-2.5zM118.6 155.6v2.7-2.7zM118.5 160.1v2.5-2.5zM174.5 156.8v2.9-2.9zM174.5 160.1v.9-.9zM174.5 161.6v.5-.5zM186.2 141.4c-.4-54.2-5.3-115.2-13.5-134.3L146.5.7l-26.2 6.4c-8.2 19.1-13.1 80-13.5 134.2l-11.4.9v11.5l11.4.9c.4 54.2 5.3 115.2 13.5 134.2l26.2 6.4 26.2-6.4c8.2-19.1 13.1-80 13.5-134.3l11.1-.9v-11.5l-11.1-.7zm-57.8 132.1c-7.4-31.8-8.9-84.3-9.5-118.3l18.6 1.4 3.3 116.9h-12.4zm9.1-134-18.6 1.4c.6-34 2.1-86.5 9.5-118.3h12.3l-3.2 116.9zm27.1 134H152l3.3-116.9 18.8-1.4c-.6 34-2 86.5-9.5 118.3zm-9.3-134L152 22.6h12.6c7.4 31.8 8.9 84.3 9.5 118.3l-18.8-1.4z"/></svg>