<svg xmlns="http://www.w3.org/2000/svg" xml:space="preserve" width="800" height="800" viewBox="0 0 142.3 142.3"><path d="m72.6 70.8 3.1-1.9L115.3 96zM70.3 69.3l-2.9-1.7 3.3-51.7zM66.8 69.1 53.7 80l15.7-9.3z"/><path d="M71.1.6a70.6 70.6 0 1 0 0 141.2A70.6 70.6 0 0 0 71 .6zm0 137.3a64.6 64.6 0 0 1-42.5-15.2A68 68 0 0 1 7.1 81.6a64.8 64.8 0 1 0 114.8-50.7c8.5 6.6 15.9 25.3 15.9 40.3a66.6 66.6 0 0 1-66.7 66.7zM65 66.1l5.7-58.5h.5l.6 61.6 9.8-5.9-9.8-55.7a63.5 63.5 0 0 1 54.9 94.4L82.6 65.1l-4.2 2.4 48 35.1a2 2 0 0 1-.4.6L72 72.1V83l53.6 20.7a63.6 63.6 0 0 1-109 .1L70.2 83V72l-54 31a2 2 0 0 0-.4-.6l47.8-35-4.2-2.4-44 36.7A63.4 63.4 0 0 1 69.6 7.5L61 63.8l4 2.3zm6.1-61.7A66.7 66.7 0 0 0 4.4 71.1c0 15 5.4 29.1 13.7 41.4 2.8 5.3 5.8 8.5 9.9 12.8A69.4 69.4 0 0 1 71.1 1.8a68.9 68.9 0 0 1 68.7 69.3A70 70 0 0 0 71.1 4.4z"/></svg>