<svg xmlns="http://www.w3.org/2000/svg" xml:space="preserve" width="800" height="800" viewBox="0 0 612 612"><path d="M492.3 207.7a211 211 0 0 0-374.4 0h374.4zM117.7 402.6a211.2 211.2 0 0 0 374.8 0H117.7zM429.3 282.2l-1.2-2.8-1.2 2.8-9.8 26.2c-.6 1.6.3 2.8 2 2.8h18c1.7 0 2.6-1.3 2-2.8l-9.8-26.2z"/><path d="M592 225.9H21.2c-10 0-18.2 8.2-18.2 18.2V368.5c0 10 8.2 18.2 18.2 18.2H592c10 0 18.2-8.2 18.2-18.2V244.1c0-10-8.2-18.2-18.2-18.2zM135.1 348.1a3 3 0 0 1-3 3H98.5a5 5 0 0 1-4.3-2.8l-29.3-63.1-1.3-2.6-.1 3.2-.4 62.3a3 3 0 0 1-3.1 3H43.9a3 3 0 0 1-3-3v-85.3a3 3 0 0 1 3-3h36a5 5 0 0 1 4.2 2.8l26.3 62.9c.6 1.5 1.2 1.4 1.2-.2v-62.4a3 3 0 0 1 3-3H132a3 3 0 0 1 3 3v85.2zm43.9 0a3 3 0 0 1-3 3h-17.4a3 3 0 0 1-3-3v-85.3a3 3 0 0 1 3-3H176a3 3 0 0 1 3 3v85.3zm102.5-26.5c0 12.2-9 26-20.6 28.3h-61.5v-20.1l49.7-.7c6.2-.1 6.6-3.7 6.5-6.2 0 0 1.2-7.9-7.3-7.9h-27.6c-16.6 0-25.5-10.4-25.5-28.2 0-25 14.3-27.9 37.3-27.9 23 0 40.5-.3 40.5-.3l-.3 20.7-40.2.1c-12.7 0-12.6.4-12.6 7.9 0 6.7 1 6.7 11.4 6.7l29.7.3c21.2.1 20.5 27.3 20.5 27.3zm94.5 0c0 12.2-9 26-20.6 28.3H294v-20.1l49.7-.7c6.2-.1 6.6-3.7 6.5-6.2 0 0 1.2-7.9-7.3-7.9h-27.6c-16.6 0-25.5-10.4-25.5-28.2 0-25 14.3-27.9 37.3-27.9 23 0 40.5-.3 40.5-.3l-.3 20.7-40.2.1c-12.7 0-12.6.4-12.6 7.9 0 6.7 1 6.7 11.4 6.7l29.7.3c21.1.1 20.4 27.3 20.4 27.3zM476.3 349h-17.8a5.4 5.4 0 0 1-4.4-2.7l-5-10.3a5.3 5.3 0 0 0-4.4-2.7h-33a5.3 5.3 0 0 0-4.4 2.7l-5.3 10.3a5.4 5.4 0 0 1-4.4 2.7h-18.3c-1.7 0-2.6-1.3-2-2.8l31.6-85.7a4.6 4.6 0 0 1 4.1-2.8h29.6c1.7 0 3.5 1.3 4.1 2.8l31.7 85.7c.5 1.5-.4 2.8-2.1 2.8zm106.4-.9a3 3 0 0 1-3 3h-33.6a5 5 0 0 1-4.3-2.8l-29.3-63.1-1.3-2.6-.1 3.2-.4 62.3a3 3 0 0 1-3.1 3h-16.2a3 3 0 0 1-3-3v-85.3a3 3 0 0 1 3-3h36a5 5 0 0 1 4.2 2.8l26.3 62.9c.6 1.5 1.2 1.4 1.2-.2v-62.4a3 3 0 0 1 3-3h17.5a3 3 0 0 1 3 3v85.2z"/></svg>