<svg xmlns="http://www.w3.org/2000/svg" width="800" height="800" viewBox="0 0 100 100"><path fill="#000" fill-rule="evenodd" d="M46.7.3c-3.2.6-6 1.5-8.7 2.9-1.4.7-1.9 1-3.1 2.4a3 3 0 0 1-1.5.9c-5.8 2-6.7 2.7-5.7 4.6 1.5 3 3.3 5.1 4.8 5.6 1.3.4 1.5.4 1.7-.2.5-1 2.6-1.8 4.7-2H40l.6.6c1.1 1.3 1.5 2.6.8 3.1-1 .7-5.3 1.1-6.3.5l-.6-.3-.4.4c-.2.2-.5.5-.8.6-1.1.6-1.1 1 0 2.7 2.5 3.7 3.8 4.3 6.1 2.8 1.7-1.1 2.3-1.2 3-.3.7.7.4 1.4-1.7 4-1.4 1.7-1 1.8-5.8-.7-15.7-8-15.3-7.9-20.4-7.9-4.7 0-5.2.2-7.4 2.5-2.3 2.3-2.6 3.4-1.7 5.3.7 1.6.8 1.6 2.5 1.1 2.6-.7 4.1 0 4.4 1.9 0 .8.2.8 1.4 1 1.3 0 2.6.7 4.5 2 2.8 2 2.8 2.4.8 2.6-3 .2-8.3 1.3-10.8 2.2-3 1-3.6 1.5-4.6 3.6-2 4-2 5.3-.2 7.7.9 1 1 1 2.7.1 3.2-1.6 4.5-1.6 5.5-.2.3.5.5.7.7.6 1.4-.5 1.6-.5 9.8-.5 12 0 12.8.2 17.3 4.4l1 .9-1 1.5c-3 5-7.2 12.6-9 16.4-1.8 3.6-2 4.2-1.8 8.6v3.6l-.3.3c-.4.5-1.6.8-6 1.5-8 1.3-8.2 1.5-9 8.2-.6 4.3-.5 4.4 1.3 4.1 3.6-.6 13-.6 22.3 0 3 .1 4.9.2 5 .1v-3.2c-.4-6.2-.4-6.3 2.4-9.3l6-6.7c6.4-7 7-7.6 7.2-7.6l1 .5c2 1.6 12 8.8 13 9.5 1 .6 2.3 1 3.8 1.1 2 .2 2.5.6 2.5 1.9 0 1-.2 1-2.8 1.6-6.5 1.4-6.6 1.5-7.5 9.8-.3 2.7-.5 2.5 2.5 2a149.8 149.8 0 0 1 21.6.5l1-1.2c.4-.6 1.6-2 2.7-3 2.3-2.3 2.3-2.2 1.7-4C94.7 85.3 88 73.2 82.8 66c-2-2.7-2-3 .2-4.8 8.6-7.7 8.8-9.9 2.3-23.4A69.8 69.8 0 0 1 79 22.5c-1.2-4.6.4-8.7 3.4-8.7 1 0 1.3.3 1.5 1.7.5 5.8 4.3 11.5 9.2 14 1.8 1 2 .5 1-3l-1.8-6.9c-2-7.8-2.4-8.6-5.1-10.3C82.5 6.6 77.5 8 74.6 13l-.8 1.1c-1.2 0-6-5.2-6.6-7.1-.4-1.4-.2-1.4-3.9-2.8C54.6 1 49.7-.3 46.7.3m-3.8 5.4c0 .3-3 1.6-3.8 1.6-.3 0-.4-.5-.1-.9.4-.6 3.9-1.2 3.9-.7m37 32.4c4 7.6 4.2 8.2 4.3 9.4.2 2.3-1.4 4-5.7 6.1-3.5 1.7-3.4 1.8-8.6-4.4-4.7-5.5-5-5.8-4.5-7 .3-1.2.6-1.4 5.3-3 5-1.7 5.2-1.9 5.3-4.8.2-3 .2-3 3.8 3.7"/></svg>