<svg xmlns="http://www.w3.org/2000/svg" xml:space="preserve" width="800" height="800" viewBox="0 0 175.5 175.5"><path d="M151.1 3.3a808.2 808.2 0 0 0-126.7 0C12.6 4.5 7 10.4 7 22c0 22.1.9 56.8 2.4 77 1.4 18.2 2.4 32.4 24.9 46a937.9 937.9 0 0 0 53 29l.4.3.3-.3c20.9-10.7 37-19.2 53-29 22.5-13.7 23.7-28 24.9-46 1.5-20.3 2.4-54.8 2.4-77 0-11.6-5.5-17.6-17.3-18.9zm8 95.3c-1.2 17.3-2.1 28.8-21.6 40.5a792.3 792.3 0 0 1-49 26.9l-.7.4-.8-.4a806.2 806.2 0 0 1-49-26.9C18.6 127.4 17.8 116 16.5 98.6c-1.5-20.1-2.4-54.5-2.4-76.5 0-8.1 2.8-11 11-11.9a790.8 790.8 0 0 1 125.3 0c8.2 1 11 4 11 12 0 22-.8 56.3-2.3 76.4z"/><path d="m86.7 52.6-2.4 8c-8.8-17.8-19.3-27.3-32-27.3A26.2 26.2 0 0 0 30 45.4a26.8 26.8 0 0 1 25-16.6c17 0 26.7 13.4 31.7 23.8zM23.1 71c0 29.9 8.8 44.2 21.8 44.2 6 0 10.4-3.7 10.4-10 0-5.2-2.3-9.3-3.3-11 .4 1.7.6 3.5.6 5.8 0 5.1-3.5 6.9-6.3 6.9-8.5 0-17.3-16.8-19.7-36h-3.5zM120.5 28.8c12.3 0 21.6 7.8 25.2 16.6-2-2.8-8.7-12-22.4-12-12.7 0-23.2 9.4-32 27.3L89 52.6c4.8-10.4 14.5-23.8 31.5-23.8zM149 71c-2.4 19.1-11.2 36-19.8 36-2.9 0-6.3-1.6-6.3-6.9 0-2.2.3-4.1.7-5.9-.9 1.7-3.3 6-3.3 11.2 0 6 4.3 10 10.4 10 13-.2 21.7-14.5 21.7-44.4H149z"/><path d="M131.3 45.3c-11.1 0-22 8.8-28.4 29.2l4.3 2.9-2 10-8 3.4-1.4 9.8 3.9-4.7 4.1-1.8-1.2 6.4-7.2 2.9-2.5 17.1 1.8 5.5-6.9 2.8-6.9-2.8 1.8-5.5-2.5-17.1-7.1-2.9-1.3-6.4 4.1 1.8 3.9 4.7-1.5-9.8-7.9-3.3-2-10 4.3-2.9c-6.5-20.5-17.4-29.3-28.4-29.3-13.7 0-19.4 13-18.6 23.7h3.2c2.8 15.3 10.4 28 16.3 28 1.7 0 2.7-1.4 2.7-3.6 0-5.4-3.6-11-3.6-21.1 0-4.8 1.5-7.7 5.1-7.7 2.4 0 4.4 2.5 5.5 5.3-2.1 7.6-1.8 14 4.3 16.7l6.6 3 4.1 17.7a17 17 0 0 0 1.4 3.5l5.8 10 2 10.5c1 5 4.6 5 8.6 5s7.5 0 8.5-5l2.1-10.5 5.8-10c.5-1 1-2.4 1.3-3.5l4.2-17.7 6.6-3c6.1-2.7 6.4-9 4.2-16.7 1.2-2.8 3.2-5.3 5.7-5.3 3.5 0 5 3 5 7.7 0 10.2-3.5 15.8-3.5 21 0 2.3.8 3.7 2.7 3.7 5.8 0 13.5-12.9 16.3-28h3.2c.9-10.7-4.8-23.7-18.5-23.7zM61.5 83.8c-4.3-2-4.7-7-3.3-13.8l4.7 7.4 1.8 7.6-3.1-1.2zm52.6 0-3.2 1.3 1.8-7.6 4.7-7.4c1.4 6.7 1 11.8-3.3 13.7z"/></svg>