<svg xmlns="http://www.w3.org/2000/svg" width="800" height="800" viewBox="0 0 192.8 192.8"><g fill-rule="evenodd" clip-rule="evenodd"><path fill="#fff" d="M0 0h192.8v192.8H0V0z"/><path d="M104.1 95.5s-1.5-1-2.5-1.3c0 0-3-1.4-3.6-2 0 0-1.1-1.1-.5-2.4 0 0 .3-.8 1.6-.8 0 0 1.6 0 1.6 1.4v1.8h5.7v-2.7s.4-4.5-6.8-4.7c0 0-5.6-.4-7.3 2.7 0 0-.6.7-.6 3v1.8s0 2 1 3.2c0 0 .5.8 2 1.8l4.5 2.4s1.7 1 1.5 2.5c0 0-.2 1.6-1.8 1.6 0 0-1.5-.1-1.5-1.7v-1.8h-6.2v2.7s-.1 5.1 7.7 5.1c0 0 7.5.2 7.9-5.3v-2.2s.2-3.3-2.7-5zm-29.3-10-2 12h-.4l-1.8-12H61l-.5 21.9h5.7V90.9h.5l3 16.5h6l3-16.5h.3l.2 16.5h5.7l-.6-22h-9.5zm-33.8 0-3.8 21.8h6.1l2.3-16.9h.5l2.2 17h6.1l-3.8-21.9H41zm128.1 9.7v3.3h1.6v3.4c0 1.7-1.5 1.7-1.5 1.7-1.7 0-1.6-1.6-1.6-1.6V90c0-1.1 1.5-1.2 1.5-1.2 1.5 0 1.5 1.5 1.5 1.5V92h5.8c.1-3.6-.6-4.4-.6-4.4-1.4-3.2-6.8-3-6.8-3-8.3 0-7.3 6.3-7.3 6.3v11.5c.1 6 8.3 5.4 8.4 5.4 3.7-.4 4.8-1.6 4.8-1.6 1-.7 1.2-1.7 1.2-1.7.3-.7.4-2.6.4-2.6v-6.8h-7.4zm-19 3.6h-.3L144 85.5h-7v21.9h5.7l-.4-13.4h.3l6 13.4h6.8v-22h-5.7l.4 13.4zm-27 3.1s.1 1.8-1.5 1.8c0 0-1.8 0-1.8-1.8V85.5h-6.2v16.3s-.7 6.2 8 6.2c0 0 7.6 0 7.6-5.9V85.5h-6v16.4zm-94-6.4s-1.5-1-2.5-1.3c0 0-3-1.4-3.6-2 0 0-1.1-1.1-.4-2.4 0 0 .2-.8 1.5-.8 0 0 1.6 0 1.6 1.4v1.8h5.7v-2.7s.4-4.5-6.8-4.7h-1.3s-4.4.3-6 2.6c0 0-.6.8-.6 3.1v1.8s0 2 1 3.2c0 0 .5.8 2 1.8l4.5 2.4s1.7 1 1.5 2.5c0 0-.1 1.6-1.8 1.6 0 0-1.5-.1-1.5-1.7v-1.8h-6.1v2.7s-.2 5.1 7.6 5.1c0 0 7.5.2 7.9-5.3v-2.2s.3-3.3-2.7-5z"/></g></svg>