<svg xmlns="http://www.w3.org/2000/svg" width="800" height="800" viewBox="0 0 100 100"><path fill="#19191B" fill-rule="nonzero" d="M33.6 6.3c18.7-.7 37.3 0 56 1.1 2 .2 3.9.2 5.8.6 1 .3 2.2.7 2.8 1.6.6 1 .6 2.2.7 3.3.5 5.6.6 11.2 1 16.7h-2.4c-14.4-.8-28.7-1.4-43.1-1.4-7.5 0-15 0-22.4.3-1.8.3-3.8.9-4.9 2.5l17 3L100 44.4v10.5c-10.5-1.7-21-3.6-31.4-5.4L.9 38l.3-11.7c.1-3 0-6.2.7-9.2.5-2.2 1.4-4.3 3-5.8 2.8-2.8 7-3.6 10.7-4 6-.5 12-.7 18-1ZM0 43.3l96.9 17.9 2.1.4.1.2-.5 15.8a20 20 0 0 1-2.1 9.5c-1.8 3-5.2 4.6-8.5 5.2-4.9.9-10 1-14.9 1.2-21.3 1-42.7.4-64-1-1.7-.1-3.5-.2-5.1-.6-.9-.3-1.8-.7-2.3-1.5-.5-1-.5-2.2-.6-3.3-.5-6.2-.7-12.3-1-18.4 11 .6 22 1 33 1.3l31.9.3a9 9 0 0 0 6.5-2c.3-.3.7-.5.6-1-4.8-.7-9.5-1.6-14.3-2.4L0 55.2V43.3Z"/></svg>