<svg xmlns="http://www.w3.org/2000/svg" xml:space="preserve" width="800" height="800" viewBox="0 0 527 527"><path d="M263.3 3.7A260.3 260.3 0 0 0 3.5 263.5a260.3 260.3 0 0 0 259.8 259.8 260.3 260.3 0 0 0 259.8-259.8A260.4 260.4 0 0 0 263.3 3.7zm0 489.6A230.2 230.2 0 0 1 33.5 263.5c0-126.6 103.2-229.8 229.8-229.8s229.8 103.2 229.8 229.8a230.3 230.3 0 0 1-229.8 229.8z"/><path d="M188.9 439.1A191.1 191.1 0 0 1 81.5 206l107.4 233.1zM316.2 446.7a189 189 0 0 1-105.9 0l52.9-123.5 53 123.5zM445.1 206.1A191 191 0 0 1 337.7 439l107.4-232.9z"/><path d="M359.4 98.9a193.2 193.2 0 0 1 59.1 54l-95 201.9-32-77.1h-56.4l-32 77.1-95-201.9a192 192 0 0 1 59.1-54l66.6 155.5h59l66.6-155.5z"/><path d="M263.3 72.8c18.6 0 36.7 2.7 53.7 7.7l-53.7 129.3-53.7-129.3c17-5 35-7.7 53.7-7.7z"/></svg>