<svg xmlns="http://www.w3.org/2000/svg" xml:space="preserve" width="800" height="800" viewBox="0 0 2500 2500"><path fill="#ffffff" d="M1250 0C559.7 0 0 559.7 0 1250s559.7 1250 1250 1250 1250-559.6 1250-1250C2500 559.7 1940.4 0 1250 0zm0 2475C573.5 2475 25 1926.5 25 1250S573.5 25 1250 25s1225 548.5 1225 1225-548.5 1225-1225 1225z"/><path fill="#ffffff" d="m340.7 868.8 31-74.7 50.3 21L365 952l-228.3-94.9 26-62.3 178 74zM417.2 495.1l30.5 27.8 49.9-54.6 40.2 36.7-49.9 54.7 71.6 65.4-45.5 49.8-182.5-166.7 100.5-110 40.2 36.6-55 60.3zM1975.5 310.6l48.4 45.5-52.3 132.3 131.2-57.9 48.9 46-131.3 220.1-48.3-47.1 73.3-129-.5-.4-142.9 60.8-19.6-18.4 54.2-144.4-.5-.5-122.2 82-49.4-45.5 211-143.5zM2291.4 816.6l-38.2 15.8 29.2 70.3-50.3 20.8-29.2-70.2-39.3 16.3 30.7 74.1-50.2 20.8-56.6-136.4 228.3-94.7 56.6 136.4-50.3 20.8zM318.9 1175.9l.9-72-248.3 94.8-.9 73.7 246 102.8.9-71.6-42.8-18.4 1.1-92.9 43.1-16.4zm-93.3 90.1-78.3-28.8v-.7l79-26.6-.7 56.1zM737.8 187.7l-65.3 34.2 26.3 265.3 63.4-33.2-4.1-46.3 82.3-43.2 34.9 30.3 63.7-33.4-201.2-173.7zm14 167.7L740 272.8l.6-.3 60.9 56.9-49.7 26zM1208.9 216.6c36.2-9.1 53.8-40.1 51.1-74.1-4.1-52.6-44.8-72.8-95.9-68.7l-100.5 8 19.6 246.3 67.3-5.3-7.5-94.7h.7l71 89.7 83.7-6.7-89.5-94.5zm-62.8-30.2-6.5.5-4.9-61.5 6.5-.4c21.9-1.8 47 .2 49.1 27 2.1 26.8-22.3 32.7-44.2 34.4zM1617.2 119.6c-71.1-22.9-152.8 5.9-175.7 77.1-24.5 76.2 15.5 148.3 94.8 173.8s154-9.7 178.5-85.9c22.9-71.1-26.5-142.1-97.6-165zm30.7 143.9-.7 2a72.5 72.5 0 0 1-91.8 45.7l-2-.7a72.5 72.5 0 0 1-45.2-92c10.5-32.5 51.5-52 89.9-39.6 38.3 12.3 60.2 52.1 49.8 84.6zM2440.9 1210.8c-2.6-74.7-57.4-141.6-132-139.1-80 2.8-134.2 65-131.4 148.2 2.9 83.3 61.4 141.6 141.3 138.8 74.7-2.7 124.7-73.3 122.1-147.9zm-124.9 77.6-2.2.1a72.4 72.4 0 0 1-74-70.8l-.1-2.1c-.7-40 31.2-73 71.3-73.7 34.1-1.2 66.4 30.7 67.7 71 1.4 40.3-28.6 74.3-62.7 75.5z"/><path fill="#ffffff" d="M1250 349.5a900.5 900.5 0 0 0 0 1801c497.3 0 900.5-403.1 900.5-900.5S1747.3 349.5 1250 349.5zm-274.5 67.1a874.1 874.1 0 0 1 264-43.8v722H975.3l.2-678.2zM709.1 559.4l.4 535.5-323.2-.1a874.1 874.1 0 0 1 322.8-535.4zm-329.4 801.4h329.7l.1 580.2a876.3 876.3 0 0 1-329.8-580.2zm859.8 766.4c-89.8-1-179-15.8-264.3-44l.1-722.4h264.2v766.4zm21 0h-1.7 1.7V372.9c478.8 4.8 866.7 395.7 866.7 877.2a877 877 0 0 1-866.7 877.1z"/><path fill="#ffffff" d="M1507 742.7h319v-33.2h-319v33.2zm0-60.9h319v-25.4h-319v25.4zm25.5-39.8zm66.4 0zm66.4 0zm66.5 0a26.7 26.7 0 1 0-26.7-26.7c.1 14.7 12 26.7 26.7 26.7zm66.5 0zm-182.8 1298.5c-36.4 0-65.9-27.2-65.9-63.6 0-36.3 29.4-68 65.9-68h128.4a25 25 0 0 0 25.1-25.1 25.4 25.4 0 0 0-25.1-25.5h-206c-66.6 0-120.6-54-120.6-120.7 0-66.6 54-117.9 120.6-117.9l252.5-.2c15.6 0 28.2-8.2 28.2-23.7a28.6 28.6 0 0 0-28.2-28.8h-254.7a181.7 181.7 0 1 1 .1-363.4l244.8.2c19 0 34.4-16.5 34.4-35.6a33.5 33.5 0 0 0-34.4-33.4l-275.8.1c13.3-57.6 51-66.5 84.2-66.4h128.5a26.7 26.7 0 0 0 26.7-26.6v-.1c0-14.7-11.9-24.4-26.7-24.4H1589c-55.3 0-81.9-48.7-84.2-75.3h132.9c11.1-35.5 33.2-53.2 57.6-53.2H1837c48.7 0 68.6-31 73.1-44.3 33.2 15.5 152.8 110.8 152.8 270.3s-141.7 241.4-230.4 242.1h-296.8a28.2 28.2 0 1 0 0 56.4l279.1-.2c88.2 0 159.8 74.4 159.8 162.6a158 158 0 0 1-159.8 157.6l-265.9-.3a26.6 26.6 0 1 0 0 53.2l201.6.2a86.1 86.1 0 0 1 86.1 86.2 85.6 85.6 0 0 1-86.1 85.6l-121.9.4a20.4 20.4 0 0 0 0 40.7h93.6c32.7.1 69.2 48.3-1.1 74.9.6-13.8-1.7-33.8-31-33.8h-74.6z"/><path fill="#ffffff" d="M1527.5 943.2c-52.1 24.4-64.8 97.4-62.1 122.9l-73 50.4a25.8 25.8 0 1 1-38-35l1.5-1.5 47.1-32.7c23.2-15.5 18.8-41 15.5-62-3.3-21-25.4-11.1-32.1-3.3a54.7 54.7 0 0 1-38.7 16.1 54 54 0 0 1-54.8-53.8 54.8 54.8 0 0 1 93.6-38.8c6.7 7.8 28.9 17.8 32.1-3.3 3.3-21 7.7-46.5-15.5-62l-47.1-32.7a25.8 25.8 0 1 1 36.5-36.5l73 50.4c-4.5 21 9.9 97.5 62 121.8z"/></svg>