<svg xmlns="http://www.w3.org/2000/svg" xml:space="preserve" width="800" height="800" viewBox="0 0 1024 1024"><path fill="#ffffff" d="M1009 414.4c-3.6-5.8-9.9-6.2-12.7-6.4h-403a37.6 37.6 0 0 0-27.6 10.3 38.3 38.3 0 0 0-10 18.9c0 .3-.6 1.8-4 1.8H472c-3.4 0-3.9-1.6-4-1.8-1.7-7.7-5-14-10-19a37.4 37.4 0 0 0-27.4-10.2h-403c-2.6 0-9 .5-12.5 6.4-1.7 2.8-2.9 7.6.7 14.3l7.4 12.3c3 4.9 6.5 6.7 13.7 7.2.1 0 3.5.3 5.8 4.4l7.5 13.2c1.6 3 5.3 10 18.1 11.9a8 8 0 0 1 6 4.3l9.3 16.3c2.7 5.2 6.5 7.2 13.4 9.3L265.6 557c5.7 1.7 8.1 8.2 8.1 8.2 4 10.4 9.2 19 35.6 26.9l138 37.6c1.6.6 17.4 5.4 29.3-6.1l32.4-31s1.3-1.2 3.1-1.2 3.2 1.4 3.2 1.4l32.3 30.8c12 11.5 27.7 6.7 29.5 6l138-37.5c26.2-8 31.6-16.7 35.4-27 .2-.3 2.4-6.4 8.1-8.1l168.6-49.5c7-2.1 10.7-4.1 13.4-9.3l9.2-16.2c2.1-4 5.7-4.4 6-4.5 12.8-1.7 16.5-8.8 18.1-12l7.5-13.1c2.3-4.1 5.7-4.4 6-4.4 7.1-.5 10.6-2.3 13.6-7.2l7.4-12.3c1.6-3 2.3-5.6 2.3-8.2a14 14 0 0 0-1.8-6m-445.8 24.5a30.5 30.5 0 0 1 8-15.2 30 30 0 0 1 22.1-8.1h185.2a37.5 37.5 0 0 0-9.9 11.2 386 386 0 0 1-8 14h-198l.6-2m-250.8 63.9v-56.1h399.3v56H312.3zm-5.9-48.5-32.8 2.2-6.5-9.8h39.3v7.6zm0 6v8l-21.9 3-6.8-9 28.7-2zm0 13.9v9.2l-10.2 2-7.5-8.8 17.7-2.4zm0 15.2v7.3l-5.7-6.2 5.7-1.1m73.8 19.2h36.1l-50.4 36a287 287 0 0 1-25.5-17.3l39.8-18.7m-45 14.6c-.5-.4-12-10-16.8-14.6h48L335.2 523zm91.1-14.6h19.4L396 560.3c-8.4-3.7-16.6-8-24.6-12.5l55-39.3m27.4 0h16.5L432 573.3a262.8 262.8 0 0 1-30.2-10.5l52-54.3m23.2 0h14l-20.3 72.8a273.3 273.3 0 0 1-32.9-6.4l39.2-66.4m70 0 39.1 66.3a273.3 273.3 0 0 1-32.9 6.4L533 508.5h14zm6.7 0h16.5l52 54.3a258 258 0 0 1-30.3 10.5l-38.2-64.8zm24.5 0h19.4l55 39.3c-8 4.6-16.3 8.8-24.7 12.5l-49.7-51.8m29.4 0h36.1l39.8 18.6a261.3 261.3 0 0 1-25.5 17.4l-50.4-36m50 0h48c-5 4.9-16.6 14.3-16.9 14.6l-31.2-14.6m60-19.2 5.8 1.2a329 329 0 0 1-5.8 6.2v-7.4zm0-6v-9.1l17.8 2.4-7.5 8.9-10.3-2.1m0-15.1v-8l28.7 1.9c-2 2.9-4.4 6-6.8 9l-21.9-3zm0-14.1v-7.7H757l-6.5 9.8-32.9-2.1zm-286.8-38.6c9.3 0 16.8 2.7 22.1 8 4 4 6.6 9 8 15.3l.6 1.8h-198c-3-5-8-14-8-14-.2-.4-3.6-6.4-9.9-11.2h185.2zm-393.3 25c-5-.3-6.2-1-7.8-3.5l-7.2-12c-1-2.1-1.5-3.6-1.4-4.6.1-2.7 2-4.8 7-5h200.8c13.6 0 21.6 14 21.6 14l6.3 11.3H37.4zm27.2 28.6a12.6 12.6 0 0 1-7.8-6.8c-3-5.3-7.2-13.3-9.3-15.8h212.7c2 3.3 4.3 6.7 6.7 10.3L80.3 469.3a59 59 0 0 1-15.7-.1M99.1 496c-6.8.9-8.9-1.3-9.3-2L81 478.6c-.6-1.2-1.3-2.1-2-3l192-12.8 7 9.5L99 496zm43.3 17.2-40-11.8L282 477.4l7.7 9.4L167 512c-4.7 1-17.7 3-24.5 1.3m61 17.8-41.9-12.3c3.6-.5 6.2-1 6.5-1.1l126.1-26c3.6 4.2 7.5 8.3 11.6 12.5l-82.3 25.4c-.3 0-11.5 3.8-20 1.5m64.1 18.9L221 536.3l4.2-1.1 85.2-26.3c6 5.7 12.2 11.4 19 17L285 546.7c-3 1.5-11.6 4.9-17.4 3.3m35.6 32.3c-17.4-6.6-20-13.1-22.5-19.5-.2-.6-1.5-4-4.3-7.2 6-1.1 10.8-3.6 11.1-3.7l47-22c8.5 6.7 17.3 12.8 26.3 18.4L319.1 578s-8.7 6.5-16 4.2m50 14.2-36.9-10.1c3.7-1.6 6.2-3.5 6.4-3.6l43.6-31.2c8.3 4.9 16.8 9.3 25.5 13.2L367.5 590c-2 2.3-8.9 7.8-14.4 6.5m51.1 13.9-39.7-10.8c4.1-2.3 7-5.3 7.2-5.5l25.7-26.8c10.2 4.4 20.7 8 31.5 11.2l-13 22.2c-1.7 2.9-7 10.5-11.7 9.7m58.3.8s-1.6 7.2-6.6 10.2a10 10 0 0 1-7.9 1l-34.7-9.5a35 35 0 0 0 7.6-9.3l14-23.5c11.1 3 22.6 5.3 34.3 6.9l-6.7 24.2zm8.8 7.2c-2.7 2.6-5.6 4-8.5 4.8 3.8-4.3 5.2-9.8 5.4-10.6l7-24.7c8.5 1 17.3 1.7 26.2 2-7.2 6.6-30 28.5-30 28.5m5.2-36.4 20.4-73.5h12V584c-11-.1-21.8-.7-32.4-2m38.3 2v-75.5H527l20.4 73.5a290.8 290.8 0 0 1-32.5 2m32.7 29.6s-18.7-17.8-25-24c9-.2 17.7-1 26.3-2l7 24.9c.1.9 1.5 6.3 5.3 10.6-5.3-1.5-6.9-3-13.6-9.5m28.4 8.8c-3 .7-5.7.4-8-1-4.8-3-6.4-9.7-6.5-10.1l-6.7-24.2c11.7-1.6 23.2-4 34.4-7l14 23.7a34 34 0 0 0 7.4 9.2l-34.6 9.4zm43.7-12c-4.6.7-10-6.8-11.5-9.6L595 578.5c10.8-3.1 21.3-6.8 31.5-11.2l25.7 26.8c.2.2 3.1 3.2 7.2 5.5l-39.7 10.8zm57.7-15.7-6.6 1.8c-5.5 1.3-12.3-4.2-14.4-6.4l-24.2-25.2c8.7-4 17.2-8.4 25.5-13.2l43.7 31.2c.2 0 2.7 2 6.3 3.6l-30.3 8.2m66-32c-2.6 6.5-5.2 13-22.7 19.6-7.2 2.2-15.8-4.2-15.9-4.2l-41.7-29.8c9-5.6 17.8-11.7 26.3-18.3l47.1 22c.3 0 5.1 2.6 11 3.7-2.7 3.2-4 6.5-4.2 7m13.2-12.7c-5.8 1.6-14.4-1.8-17.3-3.2l-44.6-21c6.8-5.4 13.1-11.1 19-17l85.3 26.4c.2 0 1.7.6 4.1 1L756.5 550zm64.2-19a40.7 40.7 0 0 1-20-1.4l-82.3-25.4a329 329 0 0 0 11.6-12.4l126 25.9c.3 0 3 .6 6.5 1l-41.8 12.4zm61-17.7A69.5 69.5 0 0 1 857 512l-122.8-25.2c2.7-3.2 5.3-6.3 7.7-9.4l179.5 24-39.9 11.8zm61.4-34.7-8.9 15.6c-.4.5-2.5 2.8-9.3 1.9l-178.7-24 7-9.5L943 475.2l2.2.2c-.8.9-1.5 2-2 3.2m31.6-29.7-7.6 13.4c-1 2-2.7 5-7.8 6.8-4.3 1-12.8.4-15.7 0l-186.5-12.4c2.4-3.6 4.7-7 6.7-10.3h212.7c-.8.9-1.3 1.7-1.8 2.5m26.8-23.8c0 .2-7.2 12-7.2 12-1.4 2.2-2.2 3.2-7.8 3.6H767.3c2.5-4.1 4.6-8 6.3-11.2.1-.1 7.8-14 21.6-14h201c2 0 4.7.3 6.2 2.7.2.3.6 1 .6 2.2 0 1-.3 2.6-1.4 4.7"/><path fill="#ffffff" d="m337 455.7-17 38h4.7v-.4c1.4-4.6 3.1-9 4.8-13.3l.4-.7h13.3c1.8 4 3.6 8.5 5.5 14v.4h6.3l-16.3-38H337zm33.2 0c-7.5 0-12.2 3.9-12.2 10.3 0 6.6 5 8.6 9.2 10.3 4 1.5 7.8 2.9 7.8 7.4 0 4.2-3.4 7.8-7.4 7.8-3.6 0-6-1.7-8.5-5.5h-1l-1.2 5.2h.4c2 2.2 6.4 3.3 9 3.3 8 0 13.6-5.2 13.6-12.6 0-6.1-4.7-8.2-9.2-10-4-1.6-7.8-3-7.8-7.4 0-3.4 3-6 6.6-6 3 0 5.2 1.7 6.3 4.5h1.1l1.5-4.8a13.6 13.6 0 0 0-8.2-2.5zm59.1 0c-11.9 0-20.3 7.7-20.3 19.2 0 11.6 8.3 19.6 20.3 19.6 12.5 0 20.7-8.3 20.7-20.3 0-13-10.4-18.5-20.7-18.5zm142.5 0-17 38h4.4v-.4c1.4-4.7 3.4-9 5.2-13.3l.4-.7h13c1.7 4 3.6 8.7 5.4 14l.4.4h6.3l-16.6-38h-1.5zm-189.8.7v3.7h.4c3.2-.4 6.4-.4 11.4-.4v34h5.2v-34c3.8 0 7.7 0 11.1.4h.4v-3.7h-28.4zm74 0v37.3h3.6v-28.8l23.3 25.5 3 3.3h1.8v-37.3H484V484l-25.5-27.7H456zm58.2 0v.4c-.5 5.5-3.8 27.9-5.2 36.6v.4h4.4v-.4c0-5.3 1-13.1 1.8-21.4 0 0 .6-3.7.7-5.2.6 1.2 7.7 14.4 10.3 19.9l3 6.3h1.1c3.1-7.2 7.6-15.4 13.7-26.2.8 6.4 2 19.2 2.6 26.6v.4h6v-.4a908 908 0 0 1-4.5-36.6v-.4h-1.9l-8.9 16.3L531 484c-5.6-9.3-10.5-19.2-14.8-27.7h-2zm79.1 0v37.3h5.2v-18.1h1.5l4.4 5.2 6.3 8 3.3 4.9h7s-14-17.7-14.8-18.5c6.8-1.4 11.1-5.1 11.1-10.3 0-5.7-4.3-8.5-12.6-8.5h-11.4zm27 0v3.7h.3c3.2-.4 6.4-.4 11.4-.4v34h5.2v-34c3.8 0 7.7 0 11.1.4h.4v-3.7h-28.4zm32.8 0v37.3h5.2v-37.3h-5.2zm13 0v37.3h3.6v-28.8l23.3 25.5 3 3.3h1.8v-37.3h-3.7V484l-25.5-27.7H666zm-236.5 1.5c4.3 0 8.6 2 11.1 5.2 2.8 3.5 3.3 7 3.3 11.4v.7c0 3.6-1.4 9-4.8 12.6a13 13 0 0 1-10 4c-8.7 0-14.4-6.3-14.4-16.2.1-11 5.7-17.7 14.8-17.7zm168.8 1c2.2 0 6-.2 7.8 0 3.7.7 5.5 2.7 5.5 6.4 0 3.8-2.5 6.5-6.6 7.4-2.3.5-5.3.4-6.6.4V459zm-261.8 4.9 5.5 12.6h-10.7l5.2-12.6zm235 0 5.1 12.6H566c.3-1 5-11.3 5.5-12.6z"/></svg>