<svg xmlns="http://www.w3.org/2000/svg" width="800" height="800" viewBox="0 0 24 24"><path fill="#ffffff" d="M19.8 7.8c-1 0-1.9.4-2.6 1a4.1 4.1 0 0 0-5.2 0 4.1 4.1 0 0 0-5.2 0c-.7-.6-1.7-1-2.6-1a4.2 4.2 0 1 0 2.6 7.4 4.1 4.1 0 0 0 5.2 0 4.1 4.1 0 0 0 5.2 0c.7.6 1.7 1 2.6 1a4.2 4.2 0 0 0 0-8.4zm-2.6 6a3.2 3.2 0 0 1 0-3.7 3.2 3.2 0 0 1 0 3.8zm-5.2 0a3.2 3.2 0 0 1 0-3.7 3.2 3.2 0 0 1 0 3.8zm-5.2 0a3.2 3.2 0 0 1 0-3.7 3.2 3.2 0 0 1 0 3.8zM.9 12a3.2 3.2 0 0 1 5.2-2.5 4.1 4.1 0 0 0 0 5A3.2 3.2 0 0 1 1 12zm6.5 2.5a4.1 4.1 0 0 0 0-5 3.2 3.2 0 0 1 4 0 4.1 4.1 0 0 0 0 5 3.2 3.2 0 0 1-4 0zm5.3 0a4.1 4.1 0 0 0 0-5 3.2 3.2 0 0 1 3.9 0 4.1 4.1 0 0 0 0 5 3.2 3.2 0 0 1-4 0zm7.1.7c-.7 0-1.4-.2-2-.7a4.1 4.1 0 0 0 0-5 3.2 3.2 0 0 1 5.3 2.5c0 1.8-1.5 3.2-3.3 3.2z"/></svg>