<svg xmlns="http://www.w3.org/2000/svg" xml:space="preserve" width="800" height="800" viewBox="0 0 271 274"><path fill="#ffffff" d="M135.5 17.5a119.5 119.5 0 1 0 0 239 119.5 119.5 0 0 0 0-239zM247.2 137a111.7 111.7 0 1 1-223.4 0 111.7 111.7 0 0 1 223.4 0z" class="st1"/><path fill="#ffffff" d="M193.4 86.3c1.6 1.7 4 4.6 5.3 6.3l24.2-15.4-4.6-5.7L203 81.6l-1 1 .8-1.2 6.8-13.5-4.8-4.8-13.5 6.8-1.1.8.9-1 10.1-15.3-5.7-4.6L180.1 74a110 110 0 0 1 6.1 5.2l14.5-7.5.9-.7-.7 1-7.5 14.3zM138.5 55.7l6.6-14.8.4-1.3-.1 1.4.7 19.8c2.3.2 4.7.5 7.1 1l-1.1-29.4c-3.3-.4-6.6-.6-9.9-.8l-6.5 16.2-.2 1.2-.2-1.2-6.5-16.2c-3.3.1-6.6.4-9.9.8l-1.1 29.3 7.1-.9.7-19.8-.1-1.4.4 1.3 6.6 14.8h6zM85 79c3.8-4 6-8.7 2.2-13a7.5 7.5 0 0 0-8.5-1.8l-.3.1.1-.3a7 7 0 0 0-7.7-8.8c-3.6.4-6.3 2.8-13.9 11.2-2.3 2.5-5.6 6.5-7.6 9.1L70 95.1c6.9-7.6 9.6-10.4 15-16zm-26.9-4.8c4.2-5 8.6-9.7 10.6-11.5.6-.6 1.3-1.2 2.2-1.4 1.4-.4 2.8.6 3.1 2 .3 1.4-.6 2.7-1.5 3.8l-10.4 11-4-3.9zm8.1 7.7 10.4-11c1-1 1.7-1.7 2.4-2 .9-.4 1.9-.5 2.8.1.9.6 1.3 1.6 1.1 2.6a8.3 8.3 0 0 1-2 3.2L70.5 86l-4.3-4z" class="st1"/><path fill="#ffffff" d="M135.5 66.2V137H64.7a70.7 70.7 0 0 1 70.8-70.8zM206.3 137a70.7 70.7 0 0 1-70.8 70.8V137h70.8z" class="st2"/></svg>