<svg xmlns="http://www.w3.org/2000/svg" xml:space="preserve" width="800" height="800" viewBox="0 0 71.9 71.9"><path fill="#ffffff" d="M35.9.8a35.1 35.1 0 1 0 0 70.6A35.1 35.1 0 0 0 36 .8zm0 66.6a31.5 31.5 0 1 1 31.4-31.5c.1 17.4-14 31.5-31.4 31.5zM22.5 63.2zM36.2 58.3zM49.9 53.5h-.1z"/><path fill="#ffffff" d="M41.7 19.9H28v4.8H14.3v17.6c0 10.1 7.8 20.3 8.1 20.9.4-.6 5.8-7.7 7.6-16 1.6 3.9 3.6 7.7 6.1 11.2.4-.6 5.8-7.7 7.6-16 1.6 3.9 3.7 7.7 6.1 11.2.4-.7 8.1-10.8 8.1-20.9V15H41.7v4.9zM28 42.5c0 7.7-5.2 14.7-5.5 15.3-.3-.5-5.6-7.6-5.6-15.3V27.3H28v15.2zm13.7-4.8c0 7.7-5.2 14.7-5.5 15.3-.3-.5-5.6-7.6-5.6-15.3V22.4h11.1v15.3zm2.6-20.1h11.1v15.3c0 7.7-5.2 14.7-5.6 15.3-.3-.5-5.6-7.5-5.6-15.3l.1-15.3z"/><path fill="#ffffff" d="M54.8 30.4V18.1h-10l9.8 17.4c.1-.8.2-2.4.2-5.1zM53.3 40.3l-8.5-14.9v7.8c0 4.9 2.6 10.4 5 14a32 32 0 0 0 3.5-6.9zM41.1 35.2V23h-10l9.8 17.4c.1-.9.2-2.5.2-5.2zM39.7 45.1l-8.5-14.9V38c0 4.9 2.6 10.4 5 14 1.4-2.2 2.5-4.5 3.5-6.9zM27.5 40.1V27.8h-10l9.8 17.4c.1-.8.2-2.4.2-5.1zM26 50l-8.5-15v7.8c0 4.9 2.6 10.4 5 14 1.4-2.1 2.6-4.4 3.5-6.8z"/></svg>