<svg xmlns="http://www.w3.org/2000/svg" width="2500" height="1512" viewBox="5 5 833.4 500"><g fill="#222222"><path fill="#ffffff" d="M716 198.7A79.5 79.5 0 0 1 660 334.5h-58.2v-38h58.8a41.7 41.7 0 0 0 31-11.3 41.8 41.8 0 0 0 13-30.3 41.7 41.7 0 0 0-13-30.2 41.7 41.7 0 0 0-31-11.3h-66v121h-37.7v-159h103a79.5 79.5 0 0 1 56.3 23.3zm-353.5-23.2v53.2a11.1 11.1 0 0 0 3 7.7c1 1 2.3 1.8 3.6 2.4a11.1 11.1 0 0 0 4.2.8H401V274h-34.5a42 42 0 0 1-16-3.1 42.5 42.5 0 0 1-13.6-9 41.5 41.5 0 0 1-12.2-29.5v-56.8zm167.5 0v56.8a42 42 0 0 1-25.7 38.5c-5 2-10.5 3.1-16 3.1h-42v60.6h-37.7v-94.9h72.8c1.4 0 2.9-.2 4.2-.8a11.2 11.2 0 0 0 6.8-10v-53.3z"/><g fill-rule="evenodd"><path fill="#ffffff" d="M301.9 224.4q0 4.2-.7 8.2-.7 4-2 7.8-1.3 4-3.3 7.5-2 3.6-4.5 6.8a49.2 49.2 0 0 1-38.6 79.6h-88.4v-37.7l86.7-.4a12.8 12.8 0 0 0 9.1-22 15 15 0 0 0-9-4.1h-94.4v64.4H119v-159h133.7a49.8 49.8 0 0 1 34.9 14.4 48.3 48.3 0 0 1 10.7 16 49.3 49.3 0 0 1 3.8 18.8m-51 14.6a12.8 12.8 0 0 0 9-22 15.4 15.4 0 0 0-9-4.2h-94.4v26.3h93.5z"/><path fill="#ffffff" d="M421.7 505C191.3 505 5 393.2 5 255S191.3 5 421.7 5C652 5 838.4 116.8 838.4 255S652 505 421.7 505zm390.2-249.7c0-117-174.4-211.7-390.2-211.7-215.8 0-390.3 94.7-390.3 211.7S206 467 421.7 467s390.2-94.6 390.2-211.7z"/></g></g></svg>