<svg xmlns="http://www.w3.org/2000/svg" width="2500" height="2500" viewBox="0 0 192.8 192.8"><g fill-rule="evenodd" clip-rule="evenodd"><path d="M0 0h192.8v192.8H0V0z"/><path fill="#ffffff" d="M60 72c34.9 0 84 3.2 107.1 12.7 2.3 1 3.9 1.6 3.9 3.2 0 2.3-4.8 3.6-9 5-17.4 5.4-48 11.8-93.2 15L27.2 66c-4 0-7.5.2-10 .4l43.2 43.2-11.8 17c69.7-11.1 101.3-22 115.4-28.4 3-1.6 11.5-5.2 11.5-10.4 0-3.2-3-5-6.5-6.6-14.6-6.1-38.7-10.2-62.5-12.3a775.8 775.8 0 0 0-75.9-3l38.9 39c7.5-.5 14.7-1.2 21.5-1.9L60 72z"/></g></svg>