<svg xmlns="http://www.w3.org/2000/svg" xml:space="preserve" width="800" height="800" viewBox="0 0 520 520.1"><path fill="#ffffff" d="M3 271.7v-22.4l.7-4.4c1.7-12.5 2.4-25.3 5.1-37.6A258 258 0 0 1 248.6 3.9c63.6-3 121.2 14.5 171.6 53.6 52.9 41 85.2 94.7 96.7 160.8 1.5 8.5 2.4 17.1 3.5 25.7v33.2l-.8 3.9c-2.9 16.3-4.5 33-8.9 48.7A257.5 257.5 0 0 1 235 515.7a252 252 0 0 1-155.6-73.5A250.6 250.6 0 0 1 5.6 294.3c-1-7.5-1.8-15.1-2.6-22.6zM257.8 33.1h-20.6c-2.5 0-5.1.4-7.6.6A263 263 0 0 0 93.3 84.5c-18.9 13.7-34.7 30.2-42.2 52.7a234 234 0 0 0-9.3 43.2 369 369 0 0 0 11.7 150.7c9.8 34.8 25.2 67 46.4 96.3 17 23.3 40.4 37.4 67 46.7a289.9 289.9 0 0 0 178.8 4.4c40.4-11.6 73.5-32.6 93.5-72.5 27.1-54 43-110.1 43.5-170.7a427 427 0 0 0-5.6-71.4c-5.8-35.6-22.8-64.2-53.6-83.7a300.1 300.1 0 0 0-165.7-47.1z"/><path fill="#ffffff" d="M81.2 189.2c.8-18.5.7-35.8 2.7-52.8a49.6 49.6 0 0 1 32.6-42.1c25.1-10.3 51.5-16 78.3-19.7 29.2-4.1 58.6-5.6 88.1-4.6 35.7 1.2 70.9 5.4 104.6 17.9a212 212 0 0 1 21.3 9.4c18.4 9.2 26.9 25.4 29.9 44.8 1.7 10.6 1.8 21.4 2.1 32.1a623.7 623.7 0 0 1-30.6 209.1c-4.4 13.4-9.2 26.4-14.1 39.6-.7 1.9-2 3.6-3.5 5a117.6 117.6 0 0 1-49.7 24.7 309 309 0 0 1-100.9 8.5 266 266 0 0 1-74.5-13.9c-5.7-2.1-11.4-4.6-16.9-7.3a46.9 46.9 0 0 1-23.7-25.4 555.3 555.3 0 0 1-43.1-175.2c-1.4-17-1.8-34.2-2.6-50.1zm188.7 180v-98.3h29.7v98.3h21.3l.2-4V206.1c0-2-.5-4.1-1.5-6-5.6-11.7-11.5-23.3-17.2-34.9-1.2-2.7-2.8-3.6-5.8-3.5-13.6.2-27.2.1-40.7.1-5.8 0-5.8 0-5.8 5.8v201.9c6.5-.3 12.6-.3 19.8-.3zm-76.7-206.6h-61.6v207.3h21.3v-99.3h31.8v-23.3h-31.6v-61.8h40.1v-22.9zm176.2 23.2H391v-23.2h-64.9v23.2h21.6v183.4h21.8l-.1-183.4zm-145 184.1V162h-20.9v207.9h20.9z"/><path fill="#ffffff" d="M299.4 242.5h-29v-57.7c5.5 0 10.9-.1 16.4.1.9 0 2.1 1.5 2.5 2.5l9.4 22.7c.3.7.6 1.5.6 2.2l.1 30.2z"/></svg>