<svg xmlns="http://www.w3.org/2000/svg" width="2463" height="2500" viewBox="-28 -29.1 774.8 785.6"><path fill="#ffffff" d="M103.2 612.1a357.8 357.8 0 0 0 506.4 6l6-6a360.8 360.8 0 0 0 0-505.2 360.2 360.2 0 0 0-512.4.4 360 360 0 0 0-75.6 390.4 354.3 354.3 0 0 0 75.6 114.4zm306-356.4c-3.6-2.4-4.8-3.6 1.6-2.4 70.8 13.2 69.2 97.6 123.2 124.8 5.2 2.8 5.2 2.4 0 2.4-13.2.4-26-2.8-37.6-8.8-21.2-14.4-26.4-21.6-46-60.8-19.2-39.2-33.2-49.6-41.2-55.2zm-77.6-125.6c-4.8 4-10 7.6-15.6 10.8-4.4 4-10.8 4.4-16 .8-11.6-5.2-11.2-6-5.6-8.8a137 137 0 0 1 36-7.2c6.4-.8 5.6.8 1.2 4.4zM496 400.9c9.2-1.2 9.2-.8 1.2 3.2a128 128 0 0 1-36 12.4c-61.2 9.2-90-58-103.2-100-1.6-5.2-1.6-5.6 2.4-1.2 8 9.2 20.8 26.4 25.2 31.6 21.2 26.8 56.4 60 110.4 54zm-197.6 3.2c0 4.4 1.2 8.4 3.2 12.4 3.6 9.2 3.6 10-3.2 2.8-9.6-10-31.6-49.6-11.2-74.8 4.4-5.2 4.8-4.4 5.2 0 2.8 20.8 13.2 60.4 84.4 73.2 6.8 1.2 5.6 2 0 2.4-32.8 4-64 .8-78-16zm271.6 162c6.8 25.2-29.2 52.8-42.8 61.6a319 319 0 0 1-168 48c-7.6 0-30.4 0-22.8-7.6a178.7 178.7 0 0 0 33.2-55.6c6-13.2 8.4-21.6 11.6-21.6s5.6 2.8 5.2 14.8c5.6 0 12.8-11.6 18-24 8.8-23.6 14-48.4 14.4-73.2 0-4.4 0-15.6 6-1.2 2.4 8 4 16.4 4.8 24.8 2.4 16 5.6 18 22 19.6a367 367 0 0 0 78.4 0c16.4 0 36.8-.4 40.4 13.6zM119.6 412.5c-22 3.6-42.8 12-60.8 24.8-2 1.6-3.2 1.6-3.6 0a180.2 180.2 0 0 1-12-76.8c4-170.8 145.6-308.8 316.4-308.8s312 138 316.4 308.8c.4 23.6-3.2 46.8-10.8 69.2 0 2-2.8 2.8-12.4 0-30-7.6-58.8-20-85.6-36-10.8-6.8-15.6-12-1.2-13.6 15.6.4 30.8-4.8 43.2-14.4-50.4-32.8-45.2-54-76-109.6-5.6-10.4-12.8-20-21.2-28.4-14.4-15.6 0-12.4 6.4-9.6 9.6 3.6 19.2 9.6 12.8 0-3.6-5.2-7.6-10-12.4-14.4a134.6 134.6 0 0 0-37.6-26c-6.4-3.2-12.4-7.2-18-11.6-3.2-3.2-4-4.8 0-4.8 5.2-.4 10.4-.4 15.6 0 4.8 0 9.2 0 5.6-3.6-5.2-4.4-10.4-8-16-11.6a58.3 58.3 0 0 1-28-46c-1.2-8.8-1.2-8.4-8-7.2a421.8 421.8 0 0 1-74.4 10.4c-52.4 6.4-75.2 14.4-86.4 23.2-2 1.6-1.6 6.8-2.8 10.4-1.6 3.6-5.2 6.4-26.4 18-15.6 6.8-30.4 16-43.2 27.6-5.2 5.6-6 9.2 3.6 21.2s15.2 18 24 29.2c2.8 3.6 3.6 3.6 5.6 1.6 5.2-4 5.2-5.2 4.4-13.2-.8-8.4-1.6-14 5.6-18s20.8 0 30 11.2 11.6 29.6 3.2 36c-5.6 4-13.2 4.8-19.6 1.6-6-2.8-7.2-2.4-12.8 1.2-1.2 0 0 2.8 0 4.4a96.2 96.2 0 0 1 11.6 25.2c3.2 10.8 6 10.8 12 6.8l7.2-4.8c26.4-19.6 34.8-31.6 37.2-43.2a77.7 77.7 0 0 1 21.6-44.4 154 154 0 0 1 42.8-23.6c13.2-6 14.8-12 8-22.8-4.8-7.6-10-14.8-15.2-22-5.6-7.2-3.2-6.4 2-7.6 10-1.6 20-2.4 30-2.8 6 0 11.6 0 2 3.6-4.4 2-8.8 4-12.8 6.8-3.2 2.4-3.6 2.8 1.6 9.2 4.8 6.4 12 14.4 15.2 18 8.4 10.8 3.6 19.2-13.2 26-36 14.4-44.8 20-54 28.8a63.8 63.8 0 0 0-14.4 33.2 63.9 63.9 0 0 1-12.4 30.4 290 290 0 0 1-46.4 39.2 49.5 49.5 0 0 0-22.8 52.8 99.9 99.9 0 0 0 26.8 42.8 60.4 60.4 0 0 1-37.6-41.6c-2-6.8-3.2-14-2.8-21.2 0-6-1.6-6.4-6.8-7.2-38.8-5.2-78-2.8-116 6a252 252 0 0 0-19.2 12c-6.4 3.2-12.4 7.2-18 11.6-5.2 4.8 1.6 23.2 15.6 28.8 8.4 3.2 10 2 11.2-4.4 1.6-9.2 3.6-12 5.6-14 2-1.6 3.2-.8 5.6 3.6 4.8 10.4 7.6 12.8 26 11.6a180 180 0 0 1 84.8 11.2c18.8 7.2 36 18 50.4 31.6 2 14.8 8.4 28.4 18 39.6 7.2 7.6 13.6 15.6 19.2 24.8 4 8 6.4 16.8 6.8 25.6 0 23.2-4 46-12.4 67.2-6.8 18.8-14 30.8-34 26.4a103 103 0 0 0-41.2-3.2c-6 2-7.6 3.6-15.2 15.6-2 3.2-2.8 3.2-6 1.6s-6-3.6-8.8-5.6c-2-1.6-2.8-2.4-1.6-4.4 8.8-13.2 12.4-18 19.6-20.8a196 196 0 0 1 57.2 3.6c8.8 1.6 13.2-8 16-16.4 6.8-26.4 5.6-54.4-3.6-80a147.7 147.7 0 0 0-163.2-98.8z"/></svg>