<svg xmlns="http://www.w3.org/2000/svg" xml:space="preserve" width="800" height="800" viewBox="0 0 44.6 44.6"><path fill="#ffffff" d="M32.6 7.2c-1 4.6-1.4 6.7-2.3 10s-1.4 6.1-2.5 7.6a4.8 4.8 0 0 1-3.5 1.9h-4a4.8 4.8 0 0 1-3.5-1.9c-1.1-1.4-1.7-4.4-2.5-7.6L12 7.2l-1.5.1-1.6.2a1826 1826 0 0 0 2.1 30l2.3.2 2.2.1c.6-2.4 1.4-5.6 2.2-7 .5-.8 1.4-1.3 2.4-1.3l2.2-.1 2.2.1c1 0 1.9.5 2.4 1.3.9 1.4 1.6 4.6 2.2 7l2.2-.1 2.3-.2a1826 1826 0 0 0 2.1-30l-1.6-.2-1.5-.1z"/><path fill="#ffffff" d="M44.4 12.8c-.6-6-4.6-7.2-8.1-7.8a80.3 80.3 0 0 0-14-.8A195.3 195.3 0 0 0 8.2 5C4.7 5.6.7 6.9.1 12.8c-.2 2-.2 4-.2 6a55.2 55.2 0 0 0 1.9 14.9c.9 2.6 1.7 3.4 2.6 4.1 1.6 1.1 3.3 1.7 5.2 2 8.4.9 16.8.9 25.2 0 1.9-.3 3.6-.9 5.2-2 1-.8 1.8-1.5 2.6-4.1.6-2.2 1.1-4.5 1.3-6.8l.6-8.1c.1-2 0-4-.1-6zm-2.2 10c-.1 3.3-.6 6.5-1.4 9.7a7.6 7.6 0 0 1-2.2 3.9 9 9 0 0 1-5.1 2c-7.5.8-15 .8-22.5 0a8.8 8.8 0 0 1-5.1-2 8.4 8.4 0 0 1-2.2-3.9 66.8 66.8 0 0 1-1.3-19.7C3 9 4.8 7.2 8.8 6.5a159 159 0 0 1 20.3-.7c2.2.1 4.5.3 6.7.7 4 .7 5.8 2.6 6.3 6.3.2 3.3.3 6.7.1 10z"/></svg>