<svg xmlns="http://www.w3.org/2000/svg" xml:space="preserve" width="800" height="800" viewBox="0 0 612 612"><path fill="#ffffff" d="M575.9 106.4C466.4-18.3 249.7 50.2 133 149.2-9.3 281.7-32.1 436.9 41.7 519.9c63.1 58.9 151.7 56.2 228.2 48.2a444.5 444.5 0 0 0 191-86.5 453.9 453.9 0 0 0 129.8-166.4c49.6-105.8-4.1-196.8-14.8-208.8zM452.4 465c-30.9 28.1-229.9 151.6-361 24.1-108.7-105.7-12.1-271.6 47-321.1 10.7-5.4 72.5-76.3 186.6-91 84.7-10.9 156.6 12.2 199.8 60.4a171.2 171.2 0 0 1 41.8 94.8c13.3 109.7-83.3 204.7-114.2 232.8z"/><path fill="#ffffff" d="M180.3 172.7v271h113.4V312.5c0-18.1-3.4-32.8-24.2-52.2l-89.2-87.6zM436 172.7v271H322.6V312.5c0-18.1 3.4-32.8 24.2-52.2l89.2-87.6z"/></svg>