<svg xmlns="http://www.w3.org/2000/svg" xml:space="preserve" width="800" height="800" viewBox="0 0 180.1 180.1"><path fill="#ffffff" d="M91.2 42.4s-8.4-1.3-14.8 5.4c-6.2 6.5-5.7 15.3-5.7 15.3l5.6-8s.7-.5.4-1.5l-.4-1.2v-1.5l24.2-.2s6.5-.3 6.5 6.4-4.5 7.1-4.5 7.1 7 1.5 7 9.2c0 7.9-8.3 10-8.3 10L83 83.2s-1.5-1.2.1-1.9c1.7-.6 2.5-.9 2.5-1.8v-.9s-3.9-.4-6.7-3.9c-2.7-3.3-2.1-8.8-2.1-8.8l-3.6-.1-2.3 3.5s1.1 8.6 5.3 12.4c4.1 3.9 7 7.4 16.9 6.9 9.9-.4 17.2-5.5 17.2-5.5l1.9-1.7s.7-1.5 2.2-.6c1.4.7-1.5 3.7-1.5 3.7s-6 8.1-21.4 9c-15.3.9-26-15-25.3-15.8.7-.7-2.3 2.8-.7 3.7 1.7.9.8 2.3.8 2.3l-11.2.1s-.7.4-.7-1.1c0-1.3 1.2-1.2 1.2-1.2s4.1-.1 5.4-2.3l3.3-5.1s-1.2-6.8-.9-9.7c.2-2.8 2.4-18 14.1-23 11.8-4.9 23.5-.9 23.5-.9s2.1 1.2 3.7 0c1.5-1.2 2.1-2.4 3.3-.1 1 2.3 3.4 6 3.4 6s1.1 3.3-3.7.6c-4.9-2.8-12.7-4.4-12.7-4.4l-3.8-.2zm-9.7 23.4h4.1V74s-2.3-.5-3.2-2.5c-1-1.9-.9-5.7-.9-5.7zm-5.8-3.3 1.7.1s.9-2.7 3.2-4.4c2.4-1.7 5-2.4 5-2.4s.6-2.2-1.1-2l-3.2.2s-.9 0-1.5 1.3l-4.1 7.2zm5.9-.2h3.9v-4.1s-1.6.2-2.6 1.7c-1.3 1.6-1.3 2.4-1.3 2.4zm9.1-5v5h7.6s3-.7 3-4.7c0-3.8-3-4.1-3-4.1h-7.6v2l4.3.1s1.2-1.3 2.5.3c1.3 1.5 1.5 2.3 1.5 2.3s.2 2.8-2.4.4c-2.7-2.4-5.9-1.3-5.9-1.3zm.2 8.6.2 9.3s3.5.7 6.1-1.5 2-1.9 2-1.9.4-.4 1.2.2c.9.7-.4 2.4-.4 2.4s-.9 1.4-3.3 2.8c-2.5 1.2-5.2 1.4-5.2 1.4l-.1 1.3s1.7.9 4.3.9c2.5-.1 3.2-.4 3.2-.4s5-1.5 5-7.4c0-5.8-5.8-7.1-5.8-7.1h-7.2z"/><path fill="#ffffff" d="m161.2 84.4-49.4-54.1s-8.4-8.8-22.7-8.4C75 22.3 65.2 34 65.2 34S29.1 73.9 18.5 86.1c-10.5 12.3-.4 28.7-.4 28.7s21.6 27.8 73 26.7c51.4-.9 71.1-25.2 74.8-36.1 3.8-10.9-4.7-21-4.7-21zm-.6 19.4c-3.3 10-22.2 31.3-69.4 32.4-47.3.9-67.2-24-67.2-24s-9.7-12.9 0-24.1c9.7-11.2 43.7-49.6 43.7-49.6s8.6-11.6 21.7-11.8a27 27 0 0 1 20.5 8.1L155 85.3c-.2-.1 9.1 8.7 5.6 18.5z"/><path fill="#ffffff" d="m49.2 109.3-4.8 6.3-21.1-15.2.8-1c.4.2.9.4 1.3.8l1.2.5h1.2c.3-.1.6-.4.9-.7l9.4-14.5.5-.9c0-.4-.1-.7-.5-1.2l-.9-1.2-1.1-.9.7-1.2 12.6 9.1-.8 1c-.4-.1-.7-.4-1.3-.7l-1.3-.6c-.5-.2-.9-.2-1.2-.1-.4.2-.6.4-.8.8L35.1 103l-.8 1.5v1.3c.1.4.4.7.9 1.2l2 1.5 2.6 1.7c.8.4 1.5.7 2.1.6.9 0 1.8-.4 3.1-.8 1.2-.5 2.1-.9 3-1.5l1.2.8zM75.3 103.8a11.4 11.4 0 0 1 .6 9.4 13.6 13.6 0 0 1-6.2 7.4c-1.5.9-3.1 1.3-4.9 1.6-1.7.1-3.6 0-5.6-.7-1.7-.4-3.3-1.2-4.4-2.1-1.3-.9-2.4-2-3.1-3.3a9.5 9.5 0 0 1-1.4-4.3 13.1 13.1 0 0 1 3.4-9.5 14 14 0 0 1 3.9-3.1c1.6-.7 3.1-1.1 4.9-1.3a15.1 15.1 0 0 1 9.7 2.8c1.4.9 2.3 2 3.1 3.1zm-9.9 14.7a26 26 0 0 0 2.3-3l1.8-3.9 1.1-3.7c.2-1.3.2-2.5.1-3.6s-.4-2-.9-2.8a6.2 6.2 0 0 0-2.6-1.7c-1.9-.5-3.7 0-5.4 1.5a15.5 15.5 0 0 0-4.1 7.1c-.5 1.3-.9 2.8-1.1 3.9a14 14 0 0 0-.1 3.5c.1 1 .5 2 1.1 2.7.5.7 1.3 1.2 2.4 1.5 1.1.4 2.1.4 3.1 0 .8-.2 1.6-.7 2.3-1.5zM99.5 107.2h-1.2a8.5 8.5 0 0 0-1.5-3.2c-.7-1.2-1.3-1.8-1.9-1.8l-1.2-.1h-2l.4 18.5.1.9c.2.4.4.6.8.7l1.1.4 1.3.1v1.3l-12.1.2v-1.3l1.2-.1 1.1-.2.8-.7.1-1.1-.3-18.6h-2l-1.2.1c-.6.1-1.2.8-1.9 1.9a44 44 0 0 0-1.5 3.3h-1.2l-.1-6.8 21-.4.2 6.9zM127.7 93.8c-.4.1-.8.4-1.3.7-.6.2-1 .6-1.4.9-.4.4-.5.9-.5 1.7s.1 1.8.5 3.1l2.3 8.2c.6 2.5.2 4.7-1.1 6.5-1.5 2-3.5 3.5-6.3 4.3-3.3.9-6.2.9-8.4 0-2.3-.8-3.7-2.6-4.3-5.1l-3-11.3c-.1-.5-.4-.7-.4-.9-.3-.3-.7-.4-1.1-.5h-1.2l-1 .1-.3-1.2 12.3-3.4.3 1.2-1 .4-1 .6c-.4.3-.6.7-.7.9l.1 1.1 2.8 11.2c.6 2.1 1.5 3.7 2.8 4.3 1.3.7 2.9.8 4.9.2a6 6 0 0 0 4-2.8c.9-1.5.9-3.3.4-5.4l-2-7.5-1-2.9c-.4-.6-.7-1.1-1.2-1.2-.4-.2-.9-.2-1.7-.2l-1.7.1-.2-1.2 10.1-3 .3 1.1zM146.6 107.2c-1.5.8-2.8 1.5-4.3 1.8-1.5.4-2.6.7-3.7.8l-.6 1.5-1.5.9-4-7.1 1.4-.8c.7.6 1.6 1 2.4 1.4.9.5 1.8.9 2.8 1.1 1 .2 2 .4 3 .2 1.1-.1 2.2-.4 3.3-1.1a7.2 7.2 0 0 0 3-3c.4-1 .4-2 0-3a2.6 2.6 0 0 0-2-1.3c-.9-.1-2.3 0-3.9.4l-2.9.9-2.6.6c-1.7.4-3.3.4-4.7-.2a6.4 6.4 0 0 1-3-2.6c-.4-.9-.6-1.7-.6-2.6.1-.9.4-1.8.9-2.9a7 7 0 0 1 2-2.8c1-1.1 2.2-1.9 3.5-2.6 1.3-.9 2.6-1.3 3.9-1.7 1.3-.4 2.4-.6 3.2-.6l.5-1.5 1.5-.9 3.7 6.6-1.5.8-2.3-1.5c-.9-.5-1.7-.9-2.4-1.1-.9-.2-1.7-.2-2.6-.1-.9 0-1.8.4-2.8 1a5 5 0 0 0-2.5 2.5c-.4.9-.4 1.9 0 2.8.4.7 1 1.2 2 1.3.9.1 2.1 0 3.8-.4.9-.2 1.9-.5 2.8-.9l2.6-.6c2-.4 3.5-.4 4.8 0a6 6 0 0 1 3.1 2.8c.4.8.6 1.7.6 2.8a8 8 0 0 1-.9 3.1 16.6 16.6 0 0 1-6 6z"/><path fill="#ffffff" d="M90.1 1.8A88.8 88.8 0 0 0 1.4 90.5a88.8 88.8 0 0 0 177.5 0A89 89 0 0 0 90.1 1.8zm0 172.8A84.3 84.3 0 0 1 6 90.5 84.3 84.3 0 0 1 90.1 6.3a84.3 84.3 0 0 1 84.2 84.2 84.3 84.3 0 0 1-84.2 84.1z"/></svg>