<svg xmlns="http://www.w3.org/2000/svg" xml:space="preserve" width="800" height="800" viewBox="0 0 989.6 989.6"><path fill="#ffffff" d="M482.8 129.6c-70.4 24-149 80.5-242 173.6A1388.3 1388.3 0 0 0 109 457.1c-34.3 46.6-75.8 125.6-92 174.6C2.4 675.5.8 706.3 12 726.5c7.2 13.1 12.3 17.4 36.9 31 74.2 41.6 194.2 79.3 298.9 94 55 7.7 78.4 9.3 147.2 9.3s92.1-1.6 147.2-9.2c97.4-13.7 201.5-45 280.3-84.3 33.5-16.8 45.6-24.8 52.5-36 8.6-13.6 10.6-23 9.4-44.9-1.8-32-15.1-72.6-41.7-125.2-19.2-38.6-61-106.7-71.4-117.4-1.8-1.8-3-4-2.8-5 .8-2.3-34.5-47.4-60.7-77.9-24.4-28.4-83-87-113.2-113.3-63.7-55.7-122.8-95.4-167-112.2-16.3-6-36.3-8.6-44.7-5.8zm43.5 38.3c36.3 18 143.8 96.4 186.4 136 78 72.3 150.2 172.4 206.7 286.7 45.8 92.8 49.6 117.6 20.8 136.5-39.6 26.2-122.6 57.1-216.4 80.3a811.2 811.2 0 0 1-222.9 27c-64.7.2-89-1.4-144-9.9C248.6 807.8 100.4 759 54 724.7c-24.6-18-20.1-43.6 23.4-132 40.8-82.8 92-161.8 145.4-224 21-24.8 74-77.2 95.6-95 55-45.1 133.1-98 164-111 14.9-6.3 22.8-5.3 44 5.2z"/><path fill="#ffffff" d="m341.2 370.6-.6 105.7-19.4-10.7c-10.4-6-40.5-24-66.5-40-30-18.5-47.8-28.2-48.6-26.8a6079 6079 0 0 0-1.6 191v188.8l16.7 6.2c9.1 3.4 18 6.5 19.6 6.9 2.6.6 3.2-18.6 4-159.1l1-159.8 42.8 23.8c23.6 13.1 45 25.4 47.8 27.3l5.2 3.2v287.8l11.7 2.2c6.3 1.2 15.7 2.8 21 3.6l9.7 1.2.4-134 .6-134.2 56 34 55.9 34 56-34.1 55.9-33.9.6 134c.4 108.6 1 133.8 3 133.8 1.4 0 8-1 14.7-2l18.6-3.2 6.4-1V671.5c0-112.7.6-144.4 2.7-146 1.2-1 22.8-13.5 47.8-27.5l45.3-25.2 1 159.8c.9 140.5 1.5 159.7 4 159 1.7-.3 10.6-3.4 19.8-6.8l16.6-6.2V589.8c0-103.9-.8-189.8-1.6-191-.8-1.4-18.6 8.3-48.6 26.8-26 16-56 34-66.6 40l-19.3 10.7-.6-105.7c-.4-89.2-.8-105.7-3.3-105.7-1.6 0-36.5 19.6-77.6 43.4l-74.8 43.5-74.8-43.5c-41.2-23.8-76-43.4-77.7-43.4-2.4 0-2.8 16.1-3.2 105.7zm99.8-3c29.9 16.7 55 30.4 56 30.4.9 0 26.5-13.9 56.8-31l55-31.1.6 82.9c.4 64.7-.2 83.5-2 85.3a2103 2103 0 0 1-56.5 34.9l-54 32.8-55.9-34.2-56-34.1-.6-84.1c-.2-46.4.2-83.7 1-83.3l55.6 31.5z"/></svg>