<svg xmlns="http://www.w3.org/2000/svg" xml:space="preserve" width="800" height="800" viewBox="0 0 293.1 293.1"><path fill="#ffffff" d="M159.9 216.5c1.7-1.3 5.5-2.6 7.6-3.5-.1-3.2-1.4-6.2-.6-8.9 1.4-4.8 4.7-6.9 7.9-7.3.2.1.4.5.2.6-1.8 1.7-2.5 4.1-2.8 6.7-.1 1-.3 4.1.6 6.3 1.9-1 6.5-2.6 8-2.9a30 30 0 0 1 1.6-8.6c1.8-4.5 5.8-8.1 9.8-6 .2.1.4.5.2.6-2.5.9-4.1 3.5-5.5 6.5-.4.9-1.8 5.7-.2 6.7l.1.1c2.9-.6 3.4-.3 6.5-.6.5-3.1 1.9-5.8 3.1-7.8 1.8-3.5 6.5-6.3 10.7-3.8.2.1.4.6.1.6a8.8 8.8 0 0 0-5.8 4.2c-.5.8-3.2 4.5-1.8 6h.5c2.5-.1 4.3.4 6.9.9.8-1.9 1.5-2.1 2.3-3.1 2.9-3.5 7.8-4.7 9.5-1.4.2.2.2.6 0 .6-1.5.2-4 1-5.2 2.5-.3.3-1.1 1.2-1.9 2.9 3.4 2.6 5.3 4.7 6.2 8.2.2.6.5 4.2-.7 2.4-5.5-6.9-12.9-8.4-24-7.3a63.2 63.2 0 0 0-29.3 9.3c6.6 5.9-3.3 11.7-4.9 3-5.8 8.8-11.9-2.3-4.1-3.9-8-7.8 2.9-11.4 5-3zM180.2 178.5c4.3-1.4 9-2.9 11.4-3.4.4-7 7-15.7 14.8-12.7.3.1.5.5.2.6-2 .6-8.4 6.7-6.2 10.6l7.3.1c1.7-7.7 8.4-13.1 16-9.6.3.1.5.6.2.6-3 .5-9.8 5.3-9 9.4a27 27 0 0 1 7.6 2.7c.9-1.9 1.9-2.6 2.8-3.6 3.3-3.5 10.1-3.8 12.1-.4.2.2.2.6 0 .6-2.9-.1-5.5.3-8 2.5a13 13 0 0 0-2.1 3.2c2.4 1.3 5.1 3.8 5.6 6.2.4 1.2.6 2.2.4 3.4-.1.3-.7 0-.9-.2-6.3-6.9-20.2-11.2-33.7-9.5-9 1.1-17.8 3.6-25.1 6.8 2.5-2.2 4.7-4.6 6.6-7.3zm-19.8 15.6-1.7 1.7c3.2 4.4-1.9 7.9-3.4 3.5-3.8 4.1-6.8-.7-4.3-2.7 3.2-.5 6.4-1.3 9.4-2.5zM158.2 253.1c.9-1 3.1-2.9 4.2-3.8-3.4-5.3-1.5-12.1 1.8-12.6.2.1.3.4.2.6-.9 1.3-1.3 8.3 1.3 9.8 1.3-.9 3.8-2.7 4.9-3-1.9-6.4 1.4-15 7.8-13.6.2.1.3.5.2.6-5.2 2.7-5.3 10.7-3.9 11.6 2.1-.6 4.4-1.5 6.7-1.7 1-8.5 8.5-12.3 12.3-10.1.2.1.3.6.2.6-2.1-1.2-10 6.9-7.4 9.3 1.8-.1 3.9.7 6 1.2.9-4.7 7.5-8.6 10.3-5.6.2.2.2.6.1.6a8.2 8.2 0 0 0-6.3 7.2c5.3 2.5 4.7 7.7 3.8 6.3-5-6.6-15.6-5.5-23.7-3.8-4.7 1-11.3 5.5-14.1 8.7 8.5 4 .8 11.5-2.8 3-5.9 10.4-11.7.9-4.8-1.9-8.4-6.5.3-10.9 3.2-3.4zM72.6 245.2a170.9 170.9 0 0 1-21.2-30.8h92v30.8H72.6zM187.7 94.7h67.6v26.5h-67.6zM255.3 54.5l-20-7.1-23.3-4.7-26.2-5.7-24.3-1.9H143V63h112.2zM47.1 23.2l8.2-2.5 3.1-.8c1.1-.2 2.2-.3 3.3 0l.4.2c.4.2.6.5.8.9a19.3 19.3 0 0 1-.3 10.7c-.2.5-.5.9-.9 1.3l-.9.8a51.4 51.4 0 0 1-7.6 3.2l-9.6 3.3v5.9l-4.8 1.9V25.9l8.3-2.7zm-3.5 13.1 9.7-3.3 2.9-1 .7-.4.3-.2.3-.3.3-.3.2-.3.3-.6.2-1.1c.1-1 .1-1.9-.2-2.9l-.2-.5-.2-.4-.3-.3-.4-.2-.4-.1H56c-1 .1-1.9.4-2.9.7l-9.6 3.1.1 8.1zm40.7-23.2c2.2-.4 4.3-.8 6.5-1l2.1-.1a3.6 3.6 0 0 1 1.8.6l.6.5.4.7a51.8 51.8 0 0 1 .7 9.8l-.1 1.9c-.1 1.2-.1 2.4-.4 3.6l-.3.8-.7 1.2-.6.9-.9.6-1.1.5-4.8 1.2-9.9 2-4.8.8-1.3.1-1-.1-.7-.3-.5-.4-.4-.6-.6-3.3v-8.9l.4-3.1.3-.9.7-1.3.7-.8.6-.5c.6-.4 1.3-.8 2.1-1.1l3.6-1.1c2.3-.7 4.9-1.2 7.6-1.7zm-2.5 4.5-5.2 1.2-1.2.4-.4.3-.4.3-.3.3-.3.3-.3.3-.2.4-.4 1c-.3 1.3-.3 2.6-.3 3.9 0 1.4 0 2.8.2 4.1l.2.5.3.5.4.4.4.3.5.2.5.1h.6l1-.1 6-1.1 4.9-1.1 1-.3.5-.3.5-.3.4-.4.4-.4.3-.5.2-.5.2-.5c.3-1.5.2-2.9.2-4.4l-.1-2.3-.1-.6-.4-1.2-.2-.4-.2-.3-.3-.3-.2-.1-.4-.2-.4-.1-.8-.1-2.5.2-4.1.8zm33-8.2c2.5-.2 5-.4 7.5-.4h1.6a3 3 0 0 1 1.6.4l.5.3c.4.3.7.6.9 1.1l.4 1c.2.8.2 1.7.2 2.5l-.1 3.2-.2 1.2-.2.4-.5.8-.5.4-.7.4-1 .3-2.7.6 2.7 1.5 1 .8.3.4 1 1.9c.4 1.2.6 2.4.6 3.6l-4.8.2a12 12 0 0 0-.5-2.6l-.4-1-.2-.5-.3-.4-.3-.4-.4-.3-.5-.3-.9-.2H117l-9.2.8-1.2.1v5.9l-4.8.5v-21l13-1.2zm-8.1 12.2 9.6-.8 3.3-.3.9-.2.4-.1.4-.2.3-.2.3-.3.2-.3.2-.3.2-.8.1-2.7-.2-1-.2-.3-.2-.3-.3-.3-.3-.2-.3-.2-.4-.1-.9-.1c-1.6 0-3.2.2-4.7.3l-8.3.7-.1 7.7zm34 4.9h5.5l3.8-.1.8-.1.7-.3.3-.2.2-.3.2-.3.1-.3.1-.7v-1l-.2-1.1-.1-.3-.1-.3-.2-.3-.3-.2-.3-.2-.7-.2-1.2-.2h-11.6c-1 0-2 0-2.9-.2l-.7-.2-.3-.2-.3-.2-.2-.2-.2-.3-.2-.3-.5-1.2c-.2-1.1-.2-2.3-.2-3.4 0-1.4.1-2.8.7-4.1l.4-.6c.7-.6 1.6-.9 2.5-1.1.9-.2 1.9-.2 2.8-.2h6.6l10.9.2v3.2l-14.4-.2-3.3.1-.7.1-.4.2-.3.3-.2.4-.1.4-.1.7v1.7l.1.4.1.4.3.4.5.3.5.1 15.1.4.6.1c.8.2 1.6.5 2.2 1.1l.6.9c.5 1.1.6 2.4.6 3.6 0 1.4 0 2.8-.4 4.1l-.2.6-.3.4-.7.7c-.5.3-1 .6-1.5.7-.8.2-1.7.2-2.5.3l-7.4.1-11.6.1v-3.4l7.8-.1h.3zm33.1 4.4c-2-.2-4.1-.3-6.1-.6a11 11 0 0 1-2.6-.6l-1.2-.6-.8-.6-.6-.7-.4-.9a123.3 123.3 0 0 1-.4-12.1v-.7c.1-1.3.2-2.6 1-3.7.3-.3.5-.6.9-.8 1-.5 2.2-.7 3.3-.8h3.5l7 .4 10.1 1V14l-13.4-1.1a32 32 0 0 0-4.4-.1l-.7.1-.5.1-.4.2-.4.3-.4.4-.3.4-.2.5-.2.9c-.2 1.4-.3 2.9-.2 4.4 0 1.2 0 2.4.2 3.6l.2.9.2.5.3.4.4.4.4.3.4.2.5.2 1.2.2 4 .4 13.6 1.3v3.9a244 244 0 0 0-8.5-.8c-1.7-.4-3.6-.5-5.5-.7zm30.6-9.5 11.1 2.1V15l5.2 1.1V38l-5.2-1.2v-8.6l-8.9-1.8-8.2-1.5v8.5l-5.2-.8V11.3l5.2.7v8.4l6 1zm39.3 1.4 5.5 1.8v3.6L233.1 23l-1.8-.5V28l11.8 3.7 5.2 1.7v3.2c-5-1.7-10.1-3.3-15.2-4.8l-1.8-.5v5.8l11.3 3.5 6.7 2.2v3.7c-7.2-2.4-14.5-4.6-21.9-6.7l-.8-.2v-22c5.7 1.6 11.4 3.4 17.1 5.2zM38.5 183.7a109 109 0 0 1-5-29.3h67a43.2 43.2 0 0 0 12.3 29.3H38.5z"/><path fill="#ffffff" d="m30.5 22.2 1.3-.5C69.2 7.9 106.5.7 143.9 0A332 332 0 0 1 256 17.9l1.4.5v1.4l-.9 134.7c-.1 23.2-12.3 55.8-35.3 84.3a167 167 0 0 1-76.1 54.2H144a145.7 145.7 0 0 1-76.4-50.8c-23.8-29.5-36-64.7-36.1-88.6l-.5-65-.5-66.4zM74.1 244h68v-27.3H54.9l-.8-1.5c4.7 8.4 10.2 16.7 16.5 24.6l3.5 4.2zm68.1 3.4h-65a138.8 138.8 0 0 0 65 41.1v-41.1zm-65.2-.2-.5-.6.5.6zm-1.2-1.3-.1-.2.1.2zM53 213.2h89.2v-16.1h3.5v91.5l-.2.1a162.8 162.8 0 0 0 72.6-52.3c22.1-27.4 33.9-58.6 34.4-81v.2h-64.3l.1-2.1v-1.4h64.3l.2-28.7h-64.5V120h64.5l.2-23.2h-64.7v-3.4h-.5v-.1H253l.2-28.1H144.7v28.2h-3.5V36.7c-35.6.6-71.3 7.7-107.1 21.6l-.1-3.6a311.4 311.4 0 0 1 110.3-21.5c36.4-.3 72.7 6 108.9 18.5v3.6l.2-34.1A328.5 328.5 0 0 0 144 4c-37 .6-73.9 7.7-110.8 21.4L35 88.6l.5 63.7v-.1h65.1v1.4l.1 2.1H35.4c.2 8 1.9 17.3 4.8 27.1l-.1-.3h71.4a18 18 0 0 0 1.9 2l2.2 1.5H41.2A166 166 0 0 0 53 213.2zm1 1.9-.1-.1.1.1zm-.1-.2-.2-.3.2.3zm-.6-1c0-.1 0-.1 0 0 0-.1 0-.1 0 0zM41 185.3l-.2-.5.2.5zm-.4-1.3-.2-.6.2.6zm-5.2-29.3zm0-2.2zm217 .4v.1-.1zm0 .5v.2-.2zm0 .2v.1-.1zm0 .6v.1-.1zm0 .2v.1-.1zm0 .1s0 .1 0 0c0 .1 0 0 0 0zm0-.3v-.1.1zm0-.3v-.1.1zm0-1.5s0-.1 0 0v-.1.1zm.5-58.6zm-108.2-32h108.4v1.7-8.1a321.6 321.6 0 0 0-108.4-18.7v25.1zm108.4 1.7v.8-.8zm0 1zm0 .1v.6-.6zM145.3 288.8zm-.8.2zm0 0-.2.1.2-.1zm-1.4-.2-.8-.2.8.2zm2.2-.1c.1 0 .1 0 0 0 .1 0 .1 0 0 0z"/><path fill="#ffffff" d="M49.6 77.5c1.9-1.2 3.9-2.4 5.9-3.4-.3-3.1-.6-7.9.2-10.5 1.5-4.8 5.9-8.7 11.1-7.8.3.1.5.4.3.5a13.5 13.5 0 0 0-6.5 7c-.4.9-1.8 7.3.3 7.8l.7.1c3.8-1.6 7.7-3 11.7-4.2 0-3.1.1-7.4 1.2-9.7 2-4.5 7-7.8 12.4-6.2.3.1.5.5.3.6-3.2 1.1-5.8 3-7.5 6-.5.9-2.6 7-.4 7.8h.1a127 127 0 0 1 11.6-2c.5-3.1 1.3-7.1 2.7-9.2 3-4.4 9-7.4 14.6-5.3.3.1.5.5.2.6-3.7.9-6.9 2.6-9.2 5.5-.6.8-3.7 6.4-1.9 7.7l.6-.1c3.2-.3 6.9-.4 10.4-.2a20 20 0 0 1 2.8-4.7c3.5-3.6 11.2-4.9 13.5-1.8.2.2.3.6 0 .6-3.3.1-6.7.6-9.2 2.9-.4.4-1.8 1.8-2.6 3.4 5.3.9 9.8 2.7 11.2 6.1.5 1.1.8 2.1.6 3.3 0 .3-.7.1-.9-.2-6.7-6.2-17.4-6.9-31.7-4.4a146.1 146.1 0 0 0-39.6 13c5.2 5.9-3 10.4-5.7 4.2-6.3 7.5-12.1-3.4-3.5-4.7-4.9-7.6 5-7.9 6.3-2.7zM51.4 137.3c1.7-1.3 3.9-2.4 5.7-3.5-1.8-2.9-2.9-7.1-2.2-9.8 1.2-4.8 4.2-7.1 7.9-6.9.3 0 .5.4.3.5-2.6 1.7-3 3.9-3.8 7.2-.4 1.8.6 4.8 1.9 5.9 3.3-1.8 3.2-1.5 6.7-2.8-1-3.1-.8-7.3.5-9.9 2-4.2 5.3-5.8 8.6-5.1.3.1.5.4.2.5-2.6 1.1-7.9 5.3-4.4 13.2 3.2-1.1 3.4-1.3 7.5-2.2.3-3.1.4-6.8 1.6-9 2.5-4.5 8.4-6.6 11.1-5.5.3.1.5.5.2.6-1.5 1-3.5 1.8-5.5 4.8-1.1 1.6-3 5.3-2.5 7.8 2.9-.4 6.7-.6 10-.5.7-1.9 2.1-4.2 3-5.3.6-.7 1.4-1.3 2.2-1.6v11.2c-5.5-.3-11.6.3-17.4 1.7-13.1 3.1-16.5 5.5-28.2 11.8 7 4.4.2 11.1-4.1 4.5-7.6 8.7-12.5-2.5-4.6-4.2-6-7.3 3.8-11.2 5.3-3.4zM48 107.5c2-1.2 4.7-2.1 6.7-3.1-.2-3.1-.6-5.9.3-8.5 1.6-4.7 4.1-7.1 8.1-6.7.3.1.5.4.3.6-2.9 1.5-2.2 3.5-3.5 6.6-.4.9-1.4 4.7.7 5.3l.7.1c3.8-1.5 2.4-1.4 6.3-2.4.1-3 .3-7.1 1.3-9.3 2.1-4.3 6-6.4 9.6-5.5.3.1.9.8.6.9-2.9.9-7.9 6.8-5.8 11.4 2.5-.4 4.2-1.2 8.7-1.8.6-3.1 1.6-6.2 3.1-8.3 3.1-4.3 7.9-5.2 10.7-3.9.3.1.7.9.4 1-3.7.8-3.8.4-6.2 3.3-1.3 1.5-3.9 5.6-2 7.5 3.2-.2 5.4-.6 8.9-.3.9-1.8 1.6-4.3 2.6-5.3 3.5-3.6 9.6-3.9 11.6-1.5.2.2.3.6 0 .6-3.3.1-4.5 1-7.1 3.3-.3.2-.9 1-1.6 2h-1.9v6.2c-5.4-.5-11.3-.3-16.8.5-14.5 2.2-19.8 5.5-31.8 11.3 5.1 6-3.2 10.2-5.7 3.9-6.4 7.4-12.1-3.7-3.3-4.8-4.9-7.9 3.7-10 5.1-3.1z"/><path fill="#ffffff" d="M186.1 95.5v58.1a41.7 41.7 0 0 1-83.6 0V95.5h83.6m2-2.1h-87.7v60.1a43.9 43.9 0 0 0 87.6 0l.1-60.1z"/><path fill="#ffffff" d="M142.4 136c.4.4 1.3-.1 1.6-.5.7-1.1.6-2.5.7-3.9.1-1.5.1-2.8-.4-4.2-.8-2.4-1.9-4.3-4.6-4.7-.3-.1-.9.5-.7.7 1.8 1.9 2.5 1.8 3 4.7.5 2.8.2 7.7.4 7.9zm-18.9 34.9c.4.1 1.3-1.1 1.6-1.8.3-.6.2-1.8.2-1.9-.1-.2-1.1.2-1.6.2l-1.6-.2c-.7-.1-.6-1.7-.7-2.6a53 53 0 0 1-.2-6.9c0-.6.2-1.4.7-1.8.7-.4 1.7-.3 2.5-.2 1.6.3 3.1 1.1 4.8 1.4.9.2 1.9.1 2.8-.2.8-.2 1.4-.8 2.1-1.1.4-.1.9-.2 1.2 0 1.3.7 2.2 2 3.5 2.5 1.7.5 3.5.3 5.3.4 1.4 0 2.8-.2 4.2 0 .6.1 1.6.2 1.8.9.2.9-1.3 1.7-1.1 2.6.4 1.4 2 2.1 2.7 3.3.3.5.2 1.1 0 1.6-.2.4-.9.5-1.2.9-.4.6-.5 1.3-.9 1.9a8 8 0 0 1-1.6 1.6c-1.3 1-2.6 2-4.1 2.8-.5.3-1.4-.3-1.6.2-.4.9-.8 2-1.2 2.6-.4.6-.9.7-1.2 1-.3.4-.7 1.1-.5 1.2h2.8a5 5 0 0 0 1.3-.3c.2-.2-.1-.8-.3-2-.1-1.2 3.2-1.7 4.8-2.6l5.1-3.3c.7-.4 1.7-.5 2.3-1.1.3-.3.2-.8.2-1.2l-.2-3c0-.5 0-1.1.4-1.4.3-.3.9-.4 1.2-.2.6.3.7 1.2 1.2 1.6.8.6 1.8.8 2.7 1.2.8.4 2.2.4 2.3 1.2.2 1.5-.8 2.9-1.4 4.2-.3.7-1 1.1-1.4 1.8-.2.4-.2.9-.5 1.2-.8.8-1.9 1.3-2.7 2.1-.6.6-1.1 1.2-1.4 1.9l-.5 1.2c-.3.4-.8.5-1.1 1.1-.3.6-1 2.2-.4 2.1.6-.1 4.1-.7 4.2-1.1.1-.3-.2-1.2-.4-2.3-.2-1.1 2.3-1.9 3.5-2.6.7-.4 1.7-.2 2.3-.7.4-.3.2-1 .3-1.4.3-.7.5-1.5 1.1-2.1.7-.8 1.9-1.1 2.5-1.9.6-1 1.3-2.2 1.1-3.3-.2-.9-1.3-1.2-1.9-1.9-.5-.5-1-1.1-1.2-1.8-.3-1-.5-2-.2-3 .4-1.2 1.6-2 2.3-3 .6-.9 1.5-1.6 1.8-2.6.3-1.2-.3-2.5-.4-3.7 0-.2-.2-.5 0-.7.8-.7 1.7-1.6 2.8-1.8 1-.1 1.8.9 2.8 1.1a7 7 0 0 0 3.2-.2c.3-.1.4-.8.2-1.1-.7-.6-2.2-.4-2.5-1.2-.2-.7 1.2-.9 1.6-1.6.5-.9.9-1.9.9-3 0-.4-.8-.4-1.1-.2-.5.3-.5 1-.9 1.4-.3.3-.8.4-1.2.4-.4 0-1-.2-1.2-.5-.3-.3-.5-1-.2-1.2.8-.5 1.9-.3 2.8-.5.4-.1.9-.2 1.1-.5.3-.6.3-1.3 0-1.9-.1-.3-.6-.3-.9-.2-.4.1-.6.7-1.1.7-.6 0-1.2-.3-1.6-.7-.3-.4-.4-1-.2-1.4.3-.7 1.3-.9 1.6-1.6.4-.9.7-2 .5-3-.1-.4-.9-.6-1.2-.3-.5.3-.4 1-.7 1.4-.4.6-.6 1.5-1.2 1.8-.4.2-1.1-.2-1.2-.7-.2-.8.3-1.6.5-2.3.3-.8.7-1.6 1.2-2.3.5-.7 1.5-1 1.9-1.8.3-.6.6-1.4.2-1.9-.3-.4-1-.1-1.4.2-.3.2-.2.9-.5 1.1-.9.4-2 .1-2.8.5-.7.4-1 1.1-1.4 1.8-.7 1.2-.8 3.3-1.1 3.5-.3.3-1 .2-1.2-.2-.3-.5.2-1.3-.2-1.8-.3-.3-1.1-.3-1.4 0-.4.4-.5 1-.5 1.6 0 .9.1 1.8.5 2.6.7 1.3 1.8 2.3 2.7 3.5.9 1.2 2 2.3 2.5 3.7.3.9.4 2 0 2.8-.3.8-1.1 1.6-1.9 1.6-1.1-.1-1.9-1.3-2.8-1.9-.9-.6-1.8-1.4-2.8-1.6-2.3-.4-4.7 0-7.1 0-2.1 0-4.3.3-6.4 0-1-.1-2.1-.5-2.8-1.2a4 4 0 0 1-1.2-2.6c-.1-1.3.4-2.5.9-3.7.4-.8 1-1.6 1.8-2.1.6-.4 1.6-.6 2.2-.4.7.3 2.6 2.9 3 2.8.4-.1.1-2.4-.1-3.1-.4-1.1-1.6-1.7-1.9-2.8-.1-.3.4-.7.7-.7.6 0 1.3.4 1.8.9.3.2 1.6 2.1 1.9 2 .3-.1-.2-2.7-.5-3.5-.5-1.1-2.1-1.9-2.2-2.2-.1-.2 0-.4.3-.5.6 0 1.2.3 1.8.5.5.2 1.3.8 1.6.7.3-.1 0-1-.3-1.4-1.1-1.3-2.6-2.1-3.7-3.3-.6-.6-1.2-1.4-1.2-2.3 0-.5.6-1 1.1-1.2.9-.4 2.1-.6 2.9-1.1.3-.2.1-.4-.2-.5-1.3-.5-2.7-.7-4.1-.7-.8 0-1.5.5-2.3.7-.5.2-1 .5-1.6.5-1 0-2.1.1-2.8-.5-.4-.4.1-1.2.4-1.8.3-.5.8-.8 1.2-1.2.3-.3 1.2-.6.9-.7-.3-.1-1.9-.1-2.8.2-.8.2-1.5.5-2.1 1.1-.5.5-.4 1.6-1.1 1.9-1.2.7-1.8.5-3.1 1.1-.3.2-1 1-1.3 1.1-1.6.2-4.8-.6-4.9-.3-.2.3 2.5 1.8 3 3.2.2.6-1.3-.3-1.9-.2-1 .1-2 .3-2.8.7-.8.4-1.5 1.1-2.1 1.8-.6.6-.9 1.4-1.6 1.9-.3.2-1-.1-1.2.2-.3.4-.4 1.3.1 1.3l2.8.2c.5 0-.5 1.1-.2 1.6.2.3.9.2 1.2 0 .4-.2.6-.8 1.1-1.1.5-.3 1-.7 1.6-.7.7 0 1.6.3 1.9.9.3.6-.4 1.3-.5 1.9-.1.7.3 1.6-.2 2.1-1.5 1.4-2 .2-4.2 3-1.8 2.2-1 1-1.6 3.9-.1.6-.2 1.2-.7 1.6-.5.3-1.3.5-1.8.2-1-.5-1.6-1.5-2.3-2.5-.4-.5-.2-1.4-.7-1.8-.7-.4-1.7-.4-2.5-.2-.6.2-.9.9-1.2 1.4-.8 1.1-1.4 2.4-2.1 3.5-.6.9-1.4 1.7-1.9 2.6-.3.5-.1 1.1-.4 1.6-.6 1.4-1.1 2.7-1.8 4-.3.5-.9.8-1.1 1.4-.1.6.1 1.9.4 1.9.3 0 1.3-.7 1.9-1.1.7-.3 2-.7 2.1-.9.1-.2-.7-.9-1.1-1.4-.7-.9.8-2.2 1.4-3.2.2-.4.7-.5.9-.9.4-.8.5-1.8.9-2.6.5-1.1 1.1-2.2 1.9-3 .4-.4 1.1-.7 1.6-.3.8.5.9 1.6 1.4 2.5.4.6.9 1.2 1.1 1.9.2.6-.4 1.4 0 1.9.5.6 1.5.8 2.3.9l1.8.2.2 2.5c.1.9-1.9.2-2.8.4l-2.5.7c-.8.2-2.3-.5-2.5.4-.7 3.5.2 7 .4 10.5 0 .9-.5 2.4.4 2.8l1.7.7c.3.7.5 1.6.9 2.1-.1.5.4.6.8.7zM178.6 104.2c0-.7-.5-1-1.4-1h-3.4c-.9 0-1.4.3-1.4 1s.5 1 1.4 1h.7v6.3c0 1.1.3 1.6 1 1.6s1-.5 1-1.6v-6.3h.7c1 0 1.4-.3 1.4-1zm-9.7 2.2c0 .8-.4 1.2-1.2 1.2h-.9v-2.4h.9c.8 0 1.2.4 1.2 1.2zm2.2 5.7c0-.4-.2-.8-.6-1.3l-1.6-2a2.6 2.6 0 0 0 2.1-2.7c0-1.8-1.2-3.1-3.3-3.1h-1.5c-1.1 0-1.4.5-1.4 1.6v6.8c0 1.1.3 1.6 1 1.6s1-.5 1-1.6V109l2.3 3.3c.4.5.7.8 1.1.8.5 0 .9-.4.9-1zm-10.6-3.1h-2.1l1.1-3.6 1 3.6zm2.8 3-.1-.7-2.2-7c-.3-.8-.8-1.3-1.5-1.3s-1.2.5-1.5 1.4l-2.3 6.9-.1.6c0 .6.4 1.1.9 1.1.4 0 .8-.3 1-1l.3-1h3.2l.2.9c.2.7.5 1.1 1 1.1.7.1 1.1-.3 1.1-1zm-9.1-3.5c0-1.1-.4-1.5-1.2-1.5h-1.3c-.8 0-1.2.3-1.2 1s.4 1 1.2 1h.6c0 1.2-.6 2-1.6 2-1.1 0-1.9-1.2-1.9-3.1 0-1.9.8-3 1.9-3 1.1 0 1.6.9 2.1.9.4 0 .8-.5.8-1 0-1-1.1-2-2.8-2-2.4 0-3.9 2-3.9 5.2 0 3.1 1.5 5.2 3.7 5.2s3.6-2 3.6-4.7zm-7.8-4.3c0-.7-.5-1-1.4-1h-3.4c-.9 0-1.4.3-1.4 1s.5 1 1.4 1h.7v6.3c0 1.1.3 1.6 1 1.6s1-.5 1-1.6v-6.3h.7c.9 0 1.4-.3 1.4-1zm-6.6 0c0-.7-.5-1-1.4-1H135c-.9 0-1.4.3-1.4 1s.5 1 1.4 1h.7v6.3c0 1.1.3 1.6 1 1.6s1-.5 1-1.6v-6.3h.7c.9 0 1.4-.3 1.4-1zm-7.4 4.5v-4.1c0-1.1-.3-1.6-1-1.6s-1 .5-1 1.6v3.9c0 1.7-.6 2.6-1.7 2.6s-1.7-.9-1.7-2.6v-3.9c0-1.1-.3-1.6-1-1.6s-1 .5-1 1.6v4.1c0 2.9 1.4 4.5 3.7 4.5 2.2 0 3.7-1.6 3.7-4.5zm-8.2-4.5c0-.7-.5-1-1.4-1h-3.4c-.9 0-1.4.3-1.4 1s.5 1 1.4 1h.7v6.3c0 1.1.3 1.6 1 1.6s1-.5 1-1.6v-6.3h.7c.9 0 1.4-.3 1.4-1zm-6.9 5.7c0-1.5-.8-2.4-2.4-3-1-.4-1.6-.5-1.6-1.2 0-.5.4-.8 1-.8l1.5.3c.6 0 .9-.4.9-.9 0-.8-.9-1.4-2.4-1.4-1.9 0-3.1 1.3-3.1 3.1 0 1.5.8 2.2 2.4 2.8.9.3 1.5.6 1.5 1.4 0 .6-.4 1-1 1-.9 0-1.6-.5-2.1-.5-.6 0-1 .4-1 1 0 .8 1.2 1.6 2.8 1.6 2.2-.1 3.5-1.5 3.5-3.4z"/></svg>