<svg xmlns="http://www.w3.org/2000/svg" width="800" height="800" viewBox="0 0 100 100"><path fill="#ffffff" fill-rule="evenodd" d="M63.7 53a871 871 0 0 1-23.2 43.7c-.4.7-.8 1-1.1 1 0 0 5.3-9.7 9.4-20C44.2 69 40.2 61 36.3 52.8c-.7-1.5-1-2.2-1-3 0-.6.3-1.4 1-2.8C42 35 55.6 9.3 59.5 3.2c.5-.7.7-1 1-1 0 0-5.4 10.4-9.4 20.2A480 480 0 0 1 63.7 47c.7 1.5 1 2.2 1 3 0 .6-.4 1.4-1 2.8Zm25.6-5.7A479.4 479.4 0 0 0 63.8 1.8C62.8.4 62.2.3 61.2.2H61a199.5 199.5 0 0 0-22.2 0C37.3.4 37 .8 36 2a618.4 618.4 0 0 0-25.4 45.4c-.5 1-.7 2-.7 2.7 0 .8.2 1.7.7 2.7a612.4 612.4 0 0 0 25.5 45.5c1 1.4 1.8 1.5 2.7 1.6a240 240 0 0 0 22.2 0c.9-.1 1.7-.2 2.7-1.6a497.4 497.4 0 0 0 25.5-45.5c.6-1.4.7-2.1.7-2.7 0-.5 0-1.4-.7-2.7Z"/></svg>