<svg xmlns="http://www.w3.org/2000/svg" width="800" height="800" viewBox="0 0 100 100"><path fill="#ffffff" fill-rule="evenodd" d="M44.6.3a49.7 49.7 0 0 0-16.6 94A49.7 49.7 0 1 0 44.6.3m11 2.1A47.6 47.6 0 1 1 45 97.1 47.6 47.6 0 0 1 55.6 2.4m-7.8 2.4a45 45 0 1 0 4.9 89.7 45 45 0 0 0-4.9-89.7M54.2 9a41 41 0 1 1-8 81.6 41 41 0 0 1 8-81.6m-7.1 4.5a46 46 0 0 0-5.5 1c-3.4.7-3.4 1-.3 3.8s6 6 8 9c1.3 1.9 1.3 2 .5 2-1.3 0-2.4-.7-4.5-2.6-3.8-3.5-10.1-8-12.1-8.6-1.1-.3-5.1 2.4-8.5 5.8-2.5 2.4-2.7 3-1.6 3.5 3.6 1.8 13 8.5 13 9.3 0 1-2.2.6-5-.8-5.8-2.8-11.3-4.6-12.4-4-.8.4-3 5.8-3.8 9-1 4.5-1 4.7 2 5.2 11.7 2.3 18.7 8.4 20.7 17.9.4 2.1.3 3-.6 3.3-.8.4-1 .3-6-2L28.5 64H17l-.4.4c-.8.8-.8 1 1.7 4.2a74 74 0 0 1 3.5 4.7c2 3 1.6 2.8 4.4 2.8 2.8 0 2.3.1 5.5-1.8l2-1.1h17.4c20.3-.1 18.1-.3 18.1 1.7s.6 2 4.4.8c3.2-1 7.8-4 8.1-5.2.5-1.8-7-6-11.1-6.5-1.1-.1-1.3.1-1.4 1.6 0 1.5-.3 1.8-1.4 1.8-.7 0-.9 0-1.2-.4-.7-.7-.7-.7.4-5.2C71.3 45 69.3 31 61 20.4c-1.4-1.7-6-6.4-6.8-6.8-.6-.3-4.7-.4-7-.2m11.7 41a4.5 4.5 0 0 1 1.4 7.2 4.5 4.5 0 0 1-7.9-3c0-3.4 3.4-5.6 6.5-4.2"/></svg>