<svg xmlns="http://www.w3.org/2000/svg" width="2500" height="2500" viewBox="0 0 192.8 192.8"><g fill-rule="evenodd" clip-rule="evenodd"><path d="M0 0h192.8v192.8H0V0z"/><path fill="#fff" d="M116 82.3H93V90h7.7V106h7.5V90h7.9v-7.6zm22.7 23.7-7.3-23.7h-9.2L115 106h7.6l4.3-16.8 4.4 16.8h7.5zM162 82.3h-23.2V90h7.7V106h7.6V90h7.9v-7.6zm22.4 23.7-7.4-23.7h-9.1l-7.4 23.7h7.6l4.4-16.8 4.3 16.8h7.6zm-147.7 1.7c1.6-7 2.8-13.8 2.8-13.8s.7-2.3-.6-3.8c-1.2-1.5-5-1-5-1s-5.9 0-11.9.8c-5.3.6-10.7 1.7-12.8 2a15.9 15.9 0 0 0-.6 4.5c0 10.5 10.5 19.5 25.1 22.6.8-2.7 2-7 3-11.3z"/><path fill="#fff" d="M47.4 103.3c0-8.5.2-16.4.2-16.4s-.3-1.2.5-1.8c.8-.6 2.6-.5 2.6-.5a168.8 168.8 0 0 0 29.6 3.6C75 79 61.5 72.5 45.5 72.5c-16 0-29.8 6.6-34.9 15.8 2.5-.4 9.2-1.7 15.3-2.5 7.9-1 14.9-1.2 14.9-1.2s1.8 0 2.6.5c.7.6.4 1.8.4 1.8a482.4 482.4 0 0 0-.2 33.4 56.7 56.7 0 0 0 4.2 0 745 745 0 0 1-.4-17z"/><path fill="#fff" d="M69.5 89.9c-6-.8-11.9-.8-11.9-.8s-3.8-.6-5 1c-1.2 1.5-.6 3.8-.6 3.8a296 296 0 0 0 5.8 25c14.3-3.2 24.7-12.1 24.7-22.5 0-1.6-.3-3-.7-4.5-2.3-.5-7.4-1.5-12.3-2z"/></g></svg>