<svg xmlns="http://www.w3.org/2000/svg" xml:space="preserve" width="800" height="800" viewBox="0 0 548 548"><path fill="#ffffff" d="M273.3 99.6C123.9 99.6 2 177.6 2 273.3S123.9 447 273.3 447s271.3-78 271.3-173.7S422.7 99.6 273.3 99.6zm75.1 32.2a329 329 0 0 1 66.7 20c17.4 9 27.6 19.6 27.6 31.1 0 23.2-41.6 43.3-101 52.1-4.1-44.8-15.1-83.1-29.9-107.6 12.8 1 25 2.5 36.6 4.4zm-75.1-5.9c22.5 0 41.4 47.7 46.7 111.8a499.2 499.2 0 0 1-93.4 0c5.3-64.2 24.3-111.8 46.7-111.8zm-141.8 25.9a335.5 335.5 0 0 1 66.7-20c11.5-1.9 23.8-3.4 36.6-4.4C220 151.9 209 190.3 204.9 235c-59.4-8.9-101-28.9-101-52.1 0-11.5 10.2-22.2 27.6-31.1zM26.1 273.3c0-34.9 20.2-67 53.9-92.4l-.2 3.6c0 34.1 51.4 63.4 123.6 75.1-.2 4.9-.2 9.8-.2 14.8 0 60.4 12.2 113.8 30.8 145.5-117.6-11.3-207.9-72.8-207.9-146.6zm253.2 148.5h-12C243.5 412.7 225 350 225 274.4l.2-11.8a466 466 0 0 0 96.2 0l.2 11.8c-.1 75.6-18.6 138.3-42.3 147.4zm33.3-1.8c18.6-31.7 30.8-85.1 30.8-145.5l-.2-14.8c72.2-11.7 123.6-41 123.6-75.1l-.2-3.6c33.7 25.4 53.9 57.5 53.9 92.4 0 73.7-90.3 135.2-207.9 146.6z"/></svg>