<svg xmlns="http://www.w3.org/2000/svg" width="2500" height="2500" viewBox="0 0 192.8 192.8"><g fill-rule="evenodd" clip-rule="evenodd"><path fill="#fff" d="M0 0h192.8v192.8H0V0z"/><path d="M190 190H2.7V2.7H190V190z"/><path fill="#fff" d="M183.5 183.5V9.3H9.3v174.2h174.2z"/><path d="M31.4 172h-6c-.8-.2-1.4-.5-1.7-1.3l-6-15c0-.4 0-.8.2-1 .1-.2.3-.4 1-.4h4.5l5 13.5 5-13.5H38c.7 0 .7 0 1 .4.2.2.2.5 0 1l-5.8 15c-.4.8-1 1.1-1.8 1.2zm36.7.4c-5.3 0-9-2-9.1-7.7v-9.4c0-.6.4-1 1.1-1h4.6v10.4c0 2 .6 3.3 3.4 3.3 2.5 0 3.3-1.4 3.3-3.3v-10.4h4.7c.7 0 1 .4 1 1v9.4c0 5.8-3.8 7.7-9 7.7zm30.7-2c.2.1.4.4.4.7 0 .5-.4.7-1 .7H93l-4.5-5.4-4.5 5.4h-5.4c-.6 0-.9-.2-.9-.7 0-.3.2-.5.3-.7l6.8-8-5.4-6.6-.3-.7c0-.5.3-.8.9-.8h5.3l3.2 4.2 3.3-4.2h5.2c.6 0 .9.3.9.8 0 .2-.1.5-.3.7l-5.4 6.6 6.7 8zm20.5.5c0 .7-.2 1-1 1h-4.6v-7h-7v7H102c-.7 0-1-.4-1-1v-15.6c0-.7.4-1 1.1-1h4.5v6.1h7v-6.1h4.7c.9 0 1 .4 1 1.1V171zm26.3-16.6h4.5v13.2h8.6v3.4c0 .6-.3 1-1 1h-11.9c-.7 0-1.3-.5-1.3-1.4v-15.2c0-.7.3-1 1-1zm16.3 0h4.5v13.2h8.7v3.4c0 .6-.4 1-1 1h-12c-.8 0-1.3-.5-1.3-1.4v-15.2c0-.7.3-1 1.1-1zM96.4 147a64.2 64.2 0 0 1-63.8-64.5A64.2 64.2 0 0 1 96.4 18a64.2 64.2 0 0 1 63.8 64.6A64.2 64.2 0 0 1 96.4 147z"/><path fill="#fff" d="M95.7 80.3s-6.2-8.3-5-15c.6-3.6 4.6-4.1 6.6-2.7.2-1.9 0-2.5-3-3.5l.7-.8c3.5 1.3 5.5 2.3 6 4.3 3-5 2.4-8.3-3.6-9.5 0-1.8-.3-2.4-2-2.7l-5.7-.6c-.3-.1-.4-.2-.5-.4-.1-.5-.5-1.9-.7-4.5-3 3-5.4 5.6-6.8 8.3-3 .2-5 2.1-6.6 4.8 2-.8 3.2-.7 4.3-.7l-.5 1c-4.3 1-6 2.9-8.9 7 1.5-1 4.2-1.7 6.3-1.8a9.1 9.1 0 0 0-.4 1c-2.7 1.1-7 4.7-9 9 2.4-1.2 4.4-1.2 5.6-1.4-1 2.9-2 4.7-4.6 4.7-3.3 0-8.8.5-13.8.1-2.7 0-3.3-1.6-4-2.5.2-2.3.7-4.4 1.3-6.4.9-2.8 2-5.5 3-8.1 6.6-.7 11.2-.9 17.2-.9l8.9-14.7c-6.2-.4-16.6 0-21.6 1.4-4.8 5-8.9 13.4-11.3 21.9l-1.5 6c-.8.2-1.6.8-3.2 1.7l1.3 2.7c-.3.6-.6 1-.7 1.8-.2 1.1-.2 2.5.3 4.1a9.2 9.2 0 0 1-1.3 2.7c1 .5 2 .7 3 .8.5 4.8 2 10.9 3.5 14.6-.7 1.2-1.2 2.4-1.4 2.9.9.7 1.4 1 2.4 1.4-.1 2 1.4 4.6 3.3 5.6l-.6 2.6c1.4-.1 2.3-.2 3-.4 1.1 1.7 2.4 3.1 3.7 4.6 4.5 4.9 9.9 8.9 16 11.5 6.7-1.5 34.3-1.8 42.8.2 6-3.6 13.2-8.2 17.3-14.6 5.7-9.2.4-18.9.9-23.4s4.8-3.5 4.8-.9c3.2-2.6 1.8-5.7.1-5.4l.5-.8s1.3-.7 2.4.3c.8.7 1 1.7.4 3.3-.8 2.9 1.6 6.2 5 4-2-1.3-.2-3.7.5-5.6 1.1-3.4-.6-6.3-3.5-7.5a8.1 8.1 0 0 0-5.5 0c-1.6.6-3.2 1.6-4.6 3.4-3 3.4-3.7 10.5-3 16.6.5 3.1.8 6.7-.3 9-1.4-5.6-5.9-8.9-10.7-11-5.6-2.5-10-2.7-16.4-6.7 14.9.1 23.4 0 27-8.6-3 1.6-9.8 2.4-13.3 2l1.1-1c5.6-.2 10.3-1.4 14-3.7 4-2.7 6.6-7.2 6.8-13.6a17.3 17.3 0 0 1-14.9 10l.6-1.2C137 73 144 65 141 54.8a18 18 0 0 0-4.8-6.6c1 5.6.1 15.2-7.5 19l-.2-1c3.4-2.7 5.4-7 5.8-10.9a19 19 0 0 0-15.3-21.6c9 6.3 10 19.4 6 27l-1-1c3.6-19.8-8.8-33.6-28.8-30.5 14.7 3.9 23.6 17 22.2 28.8l-1.4-.2c-.6-6-1.9-12.3-10.2-19.8a25 25 0 0 0-34.5-.1c9.5-1.9 29.8.1 36.7 18 3.4 9-.5 18-12.2 24.4z"/><path d="m63 57-3.5-9.3 3.8-.6 2.6 6 3.9-6.4h4.6c-2 2.7-4.7 7.2-6.2 10-2.2 0-3.4 0-5.2.2zM95 54c-1.3 1-2.1-.7-3.7-1 .6-1.2 2-.8 3-.4.4.2 1 .4 1.4.4.5 0 .7.3.2.6l-.8.4zM49.8 86.6l1-.5c.4 1.7 4 4.1 5.3 4.2l-.7-3.7h1.4c.6 1.7 3.3 4.2 5.9 4.3-.4-.6-1.2-3.1-1.3-4h1.8c.4 2 3.4 5.5 6.3 5.6-.5-1.7-.8-4.1-.8-5.4h1.7c.3 1.5 1 4 1.7 6.1-3 1.7-6.7 4.2-11 6.3-3.1 1.6-6 1.6-8.2.5l-1.5-4.3c-.7-3-1.3-6-1.6-9.1zm9.3 24.6.6-.8c2 1.6 5.3 2.2 7.5 1.5a9.6 9.6 0 0 1-2.7-3.3l1.2-.5c1 1.4 5.2 2.4 8 1.6-1.2-.9-2.5-2.1-3.2-3.3l1.3-.6a7.3 7.3 0 0 0 8 1.7c-1-.7-2.7-3-2.9-3.7l1.1-.6c5.4 4.8 9.2 5.4 24.1 5 10.4 0 14 4.6 13.2 10.3a165.9 165.9 0 0 0-48.1 1.2 38.4 38.4 0 0 1-4-3.6 31.8 31.8 0 0 1-4.1-4.9zm-10.7 57.9H44l-1 2.8h-4.6c-.5 0-.7-.1-1-.4v-1l6-15c.3-.9.8-1.2 1.8-1.2H51c.9 0 1.5.4 1.7 1.2l6 15v1c-.2.2-.4.3-1 .4H53l-1-2.8h-3.8z"/><path fill="#fff" d="M45.6 164.6h4.9L48 158l-2.4 6.7z"/><path d="M132.1 169H128l-1 3h-4.6c-.6 0-.8-.2-1-.5-.1-.2-.2-.5 0-1l5.9-15c.3-.9 1-1.2 1.8-1.2h5.8c.9 0 1.5.4 1.8 1.2l6 15.1-.1.9c-.2.3-.4.4-1 .4l-4.6.1-1-3H132z"/><path fill="#fff" d="M129.5 164.7h4.8l-2.5-6.8-2.3 6.8z"/></g></svg>